<svg width="300" height="363" viewBox="0 0 300 363" fill="none" xmlns="http://www.w3.org/2000/svg">
<g clip-path="url(#clip0_982_1152)">
<rect width="300" height="363" fill="white"/>
<path d="M27.6413 66.008C18.4413 68.408 14.1419 34.1747 15.1419 15.508C15.2875 12.308 16.2008 9.84131 17.1399 10.008C28.3065 13.508 52.1413 18.808 52.1413 24.008C52.1413 29.208 34.6399 27.1746 26.6399 24.008C29.1401 37.1746 36.8413 63.608 27.6413 66.008Z" fill="#C89E6F"/>
<path d="M49.0009 46.5C50.6009 52.5 55.3343 53.1667 60.5009 56C61.6676 56.5 65.471 61.0293 60.5009 59.5C54.0009 57.5 42.5009 51 41.5009 46.5C40.5009 42 47.4009 40.5 49.0009 46.5Z" fill="#C89E6F"/>
<path d="M209.805 351.35C215.917 352.444 218.527 348.439 223.283 344.96C224.23 344.115 229.945 342.59 226.453 346.443C221.887 351.483 211.126 359.145 206.626 358.143C202.127 357.142 203.692 350.257 209.805 351.35Z" fill="#C89E6F"/>
<path d="M124.666 29.0184C137.443 22.0006 141.365 23.7313 147.01 22.0424C148.256 21.7977 152.599 20.4794 147.743 18.6199C134.973 13.73 119.489 21.2638 117.569 25.4548C115.649 29.6458 119.224 32.0079 124.666 29.0184Z" fill="#C89E6F"/>
<path d="M170.718 17.3781C187.203 17.7389 200.937 23.4207 202.953 27.5559C204.968 31.6911 206.938 28.3186 203.806 24.7618C188.209 7.04914 168.431 8.33894 165.221 11.647C162.01 14.955 164.51 17.2422 170.718 17.3781Z" fill="#C89E6F"/>
<path d="M249.696 261.179C260.205 262.046 268.433 266.334 269.317 269.15C270.201 271.966 271.792 269.807 270.137 267.331C261.898 255.003 249.12 255.103 246.742 257.172C244.363 259.242 245.738 260.852 249.696 261.179Z" fill="#C89E6F"/>
<path d="M214.498 101.869C206.974 116.541 200.498 120.5 194.498 124C188.498 127.5 191.271 129.643 195.498 127.5C216.031 117.09 223.628 103.759 222.054 99.4262C220.48 95.0934 217.331 96.3433 214.498 101.869Z" fill="#C89E6F"/>
<path d="M167.264 146.857C159.745 160.394 153.545 163.818 147.805 166.832C142.065 169.845 144.6 172.021 148.634 170.204C168.228 161.381 175.773 149.12 174.431 144.928C173.09 140.735 170.095 141.759 167.264 146.857Z" fill="#C89E6F"/>
<path d="M121.501 182C113.5 190 112 190.5 106.5 196C101 201.5 105.882 202.046 109.5 199.5C123 190 130.845 185.193 129.503 181C128.161 176.807 124.262 179.24 121.501 182Z" fill="#C89E6F"/>
<path d="M77.2055 225.559C71.4373 235.293 72.288 237.321 69.6909 244.653C67.0938 251.985 72.1271 250.572 73.9055 246.521C80.5 231.5 89.5171 221.207 86.5012 218C83.4854 214.793 80.5 220 77.2055 225.559Z" fill="#C89E6F"/>
<path d="M163.248 301.042C174.142 297.985 174.927 295.931 181.868 292.421C188.81 288.912 183.849 286.32 180 288.5C164.39 297.34 151.338 295.688 151.304 300.09C151.271 304.493 157.026 302.788 163.248 301.042Z" fill="#C89E6F"/>
<path d="M209.499 273.93C218.5 271.5 218.558 271.009 225.499 267.5C232.441 263.991 227.48 261.399 223.631 263.579C208.021 272.419 198.309 269.528 198.276 273.93C198.243 278.332 203.26 275.614 209.499 273.93Z" fill="#C89E6F"/>
<path d="M246.386 334.251C254.112 329.032 254.007 328.549 259.434 322.977C264.861 317.406 259.329 316.564 256.395 319.875C244.498 333.301 234.373 333.717 235.77 337.892C237.167 342.067 241.031 337.868 246.386 334.251Z" fill="#C89E6F"/>
<path d="M67.6701 274.264C72 284.5 70.4757 281.567 74.0012 288.5C77.5266 295.433 81.9696 291.311 80.2585 287.232C73.9132 272.104 72.9964 262.341 68.5943 262.318C64.1921 262.295 65.1525 268.312 67.6701 274.264Z" fill="#C89E6F"/>
<path d="M107.934 310.246C119 311.211 119.835 311.211 127 310.246C134.165 309.28 130.063 306.995 125.651 306.674C109.499 305.5 102.499 301.5 98.3873 303.006C94.2751 304.512 101.496 309.684 107.934 310.246Z" fill="#C89E6F"/>
<path d="M222.001 49.5C230 53.5001 228.357 68.5496 226 72.5C223.643 76.4504 228.738 76.568 230 72C236.287 49.252 229.478 44.3608 224.952 43.4846C220.426 42.6084 216.447 46.7228 222.001 49.5Z" fill="#C89E6F"/>
<path d="M276.499 288C281.575 296 270.592 308.391 266.659 310.776C262.725 313.162 267.172 315.653 270.427 312.209C286.639 295.057 282.915 287.546 279.327 284.651C275.739 281.757 273.172 282.757 276.499 288Z" fill="#C89E6F"/>
<path d="M81.5 50C86.4246 45.9671 99.2331 42.0638 103.5 38C104.33 37.0399 111.465 35.2279 108.5 39.5C104.623 45.0871 85.3923 58.0916 80.8009 57.6795C76.2096 57.2675 76.6957 53.9343 81.5 50Z" fill="#C89E6F"/>
</g>
<defs>
<clipPath id="clip0_982_1152">
<rect width="300" height="363" fill="white"/>
</clipPath>
</defs>
</svg>
