<svg width="386" height="44" viewBox="0 0 386 44" fill="none" xmlns="http://www.w3.org/2000/svg">
<path fill-rule="evenodd" clip-rule="evenodd" d="M27.4688 1.20886C17.973 1.20888 6.05599 7.89321 4.56573 21.168C3.07547 34.4428 11.808 41.0673 11.808 41.0673C11.808 41.0673 0.106691 34.5274 0.000593816 21.0756C-0.105503 7.62383 14.0232 -3.24038 28.233 0.888164C28.5028 0.966554 31.8279 2.12095 33.2028 2.95749C34.6175 3.81819 35.9647 4.91436 37.207 6.21554C39.9801 9.12009 41.9731 12.7692 42.9704 16.7683L42.971 16.7707C44.0119 21.2787 43.6098 25.9054 41.8081 30.1508C40.9407 32.1944 39.7714 34.0883 38.3326 35.7795C36.9555 37.3984 35.3586 38.7991 33.5821 39.9473C33.494 40.0103 33.4215 40.0601 33.3902 40.076C33.3745 40.0839 33.3591 40.0916 33.3439 40.099C33.3221 40.1128 33.3002 40.1265 33.2783 40.1401C33.258 40.1527 33.2358 40.1596 33.2136 40.1611C33.183 40.1753 33.1531 40.189 33.1233 40.2026C33.0223 40.2487 32.9231 40.294 32.8073 40.355C32.7531 40.3835 32.6981 40.4103 32.6431 40.437C32.5291 40.4924 32.4151 40.5478 32.3089 40.619C32.2223 40.6771 32.1305 40.7311 32.0301 40.7658C31.9966 40.7773 31.982 40.8012 31.9722 40.8336C31.9554 40.8905 31.9378 40.9472 31.9202 41.0039C31.9046 41.0542 31.889 41.1045 31.874 41.1549C31.7639 41.5259 31.5475 41.8151 31.2137 42.013C31.048 42.1111 30.8703 42.1516 30.6782 42.1086C30.5895 42.0889 30.5175 42.043 30.4619 41.9708C30.4085 41.9013 30.3819 41.8208 30.3636 41.7374L30.3603 41.7222C30.3471 41.6616 30.3339 41.6009 30.3286 41.5392C30.3261 41.5131 30.313 41.5037 30.2879 41.5105C30.2748 41.5138 30.2613 41.516 30.2489 41.5199C30.2059 41.5333 30.1629 41.5466 30.1199 41.5599C30.0002 41.5969 29.8805 41.634 29.7612 41.6721C29.6175 41.7182 29.6174 41.7196 29.5998 41.8687L29.5997 41.8696C29.5963 41.8988 29.5935 41.9281 29.5907 41.9575C29.5855 42.0128 29.5803 42.0682 29.5707 42.123C29.5289 42.364 29.4688 42.5991 29.3687 42.8249C29.2833 43.0178 29.1628 43.1744 28.9851 43.2882C28.9171 43.3313 28.8478 43.3716 28.7785 43.412C28.7568 43.4246 28.7352 43.4371 28.7136 43.4498C28.6619 43.4801 28.6098 43.5097 28.5577 43.5393C28.3896 43.6346 28.2216 43.7299 28.069 43.8501C28.0427 43.8708 28.0138 43.8886 27.9844 43.9049C27.8533 43.9764 27.7126 44.008 27.5643 43.9983C27.4471 43.9906 27.382 43.9252 27.3622 43.8095C27.3545 43.7655 27.3504 43.7214 27.3463 43.6771C27.3455 43.6682 27.3447 43.6593 27.3439 43.6504C27.3241 43.4401 27.3478 43.2339 27.3997 43.0311C27.4497 42.8353 27.4931 42.6397 27.4978 42.4362C27.4997 42.3647 27.4967 42.2934 27.4938 42.2221C27.4918 42.1728 27.4897 42.1234 27.4893 42.074C27.489 42.0158 27.4789 42.01 27.4206 42.0067C27.3758 42.0045 27.331 42.0039 27.2862 42.0044C27.2322 42.005 27.1782 42.0074 27.1241 42.0098C27.0082 42.015 26.8923 42.0201 26.7763 42.0072C26.7422 42.0034 26.7222 42.0165 26.7127 42.0513C26.6684 42.2131 26.6005 42.3659 26.5328 42.5185C26.5178 42.5522 26.5029 42.5858 26.4882 42.6196C26.3669 42.8993 26.1972 43.1443 25.9581 43.3375C25.8471 43.4272 25.7259 43.4998 25.5892 43.5402C25.3672 43.6057 25.1843 43.5472 25.0793 43.3274C25.0524 43.2712 25.0332 43.2132 25.0139 43.1546L25.0128 43.1515C24.9945 43.095 24.9937 43.095 24.9362 43.0905L24.9334 43.0903C24.6321 43.0677 24.3388 43.0091 24.0589 42.892C23.8883 42.8209 23.724 42.7362 23.594 42.6023C23.4599 42.464 23.3283 42.3227 23.2099 42.1704C23.1776 42.1287 23.1431 42.1068 23.0921 42.1098C22.9912 42.1156 22.8922 42.1018 22.7932 42.0879C22.7437 42.081 22.6942 42.0741 22.6445 42.0696C22.6134 42.0666 22.5812 42.0618 22.5522 42.0511C22.4909 42.0288 22.4321 42.0308 22.3689 42.0467C22.3579 42.0494 22.3468 42.0521 22.3357 42.0548C22.1596 42.0979 21.9835 42.141 21.8215 42.227C21.7874 42.2452 21.7537 42.2642 21.72 42.2831C21.6717 42.3103 21.6234 42.3375 21.5739 42.3624C21.3675 42.466 21.1559 42.5581 20.944 42.6497C20.7996 42.7123 20.6512 42.7614 20.4978 42.7954C20.4278 42.8112 20.3562 42.8195 20.2843 42.8094C20.1897 42.7962 20.1015 42.7019 20.1005 42.6142C20.0995 42.5173 20.1261 42.4297 20.1783 42.3475C20.252 42.2312 20.3513 42.1409 20.4648 42.0679C20.7332 41.8944 21.0205 41.7583 21.319 41.6466C21.3235 41.6449 21.3282 41.6436 21.333 41.6423C21.3471 41.6384 21.3619 41.6344 21.3734 41.6198C21.3175 41.5872 21.2614 41.5648 21.2046 41.545C21.0575 41.4941 20.921 41.4214 20.789 41.341C20.6071 41.2304 20.4165 41.1365 20.2259 41.0426C20.1331 40.9968 20.0402 40.951 19.9483 40.9033C19.9073 40.8821 19.9011 40.8851 19.8817 40.9261C19.8754 40.9392 19.8694 40.9524 19.8633 40.9655C19.8458 41.0032 19.8283 41.0408 19.8077 41.077C19.7157 41.2395 19.6107 41.3931 19.4836 41.5298C19.4046 41.6151 19.3153 41.6877 19.1971 41.7207C19.0148 41.7715 18.8396 41.7432 18.6704 41.6777C18.4535 41.5933 18.2577 41.4753 18.099 41.2985C18.0029 41.1911 17.9263 41.0761 17.8841 40.9382C17.8284 40.7567 17.8291 40.5782 17.9322 40.4137C18.068 40.1963 18.239 40.0168 18.4909 39.9315C18.5432 39.9136 18.5448 39.9058 18.5112 39.8617C18.5063 39.8552 18.5014 39.8487 18.4964 39.8423C18.4388 39.7664 18.3806 39.6901 18.3405 39.6042C18.2919 39.4997 18.211 39.4294 18.123 39.3635C18.1108 39.3546 18.0984 39.3461 18.0861 39.3375C18.0727 39.3282 18.0592 39.3189 18.0461 39.3092C17.9245 39.2181 17.7956 39.1378 17.6667 39.0576C17.6471 39.0454 17.6276 39.0333 17.6081 39.0211C17.5751 39.0003 17.5526 39.0047 17.5268 39.032C17.5009 39.0593 17.472 39.0834 17.443 39.1076L17.4367 39.1129C17.2983 39.2283 17.1524 39.3339 17.0065 39.4395C16.9582 39.4745 16.9099 39.5095 16.8618 39.5448C16.7711 39.6116 16.6744 39.6668 16.5698 39.7089C16.3936 39.7796 16.2086 39.794 16.0221 39.7986C15.9411 39.8005 15.8598 39.7933 15.7836 39.7654C15.559 39.6834 15.4155 39.5063 15.5017 39.2409C15.5628 39.0529 15.6795 38.9028 15.8163 38.7706C15.9787 38.6141 16.1674 38.4926 16.3833 38.4185C16.3988 38.4132 16.4171 38.4113 16.4322 38.3949C16.4273 38.3926 16.4232 38.3905 16.4195 38.3886C16.414 38.3859 16.4095 38.3836 16.4047 38.3817C16.2385 38.3212 16.0734 38.2571 15.9128 38.1823C15.8648 38.16 15.864 38.1621 15.8456 38.2146L15.8454 38.2152C15.7981 38.3522 15.7251 38.4716 15.5992 38.5497C15.3667 38.694 15.1141 38.7561 14.8413 38.7223C14.6345 38.6972 14.4421 38.6212 14.2522 38.5408C14.2441 38.5373 14.2359 38.5339 14.2278 38.5305C14.1343 38.4913 14.0405 38.4519 13.9609 38.3885C13.7519 38.2223 13.7404 38.063 13.8532 37.8799C13.9218 37.768 14.0158 37.6825 14.1275 37.6178C14.4437 37.4354 14.7782 37.3099 15.1475 37.2927C15.2495 37.2878 15.3491 37.2926 15.4475 37.3173C15.5893 37.3525 15.7008 37.4285 15.7658 37.5637C15.7764 37.5851 15.7872 37.6063 15.7979 37.6276C15.8105 37.6522 15.823 37.6769 15.8351 37.7019C15.8532 37.7382 15.8643 37.7763 15.8689 37.8172C15.8822 37.9336 15.8828 37.9343 15.9983 37.9659C16.1931 38.0195 16.3847 38.0813 16.569 38.165C16.6422 38.1982 16.714 38.2343 16.7858 38.2704C16.8241 38.2897 16.8624 38.3089 16.9009 38.3277C16.9492 38.3514 16.9567 38.3472 16.9523 38.296C16.9514 38.2845 16.9504 38.273 16.9494 38.2615C16.9427 38.1839 16.9361 38.1063 16.9347 38.0282C16.9326 37.8927 16.9393 37.7589 16.9781 37.6289C17.0212 37.4826 17.0581 37.3351 17.0917 37.1864C17.1092 37.1097 17.1349 37.0356 17.1762 36.9677C17.2503 36.8456 17.3558 36.7841 17.5018 36.7994C17.5553 36.8051 17.6076 36.8164 17.6595 36.831C17.7656 36.8612 17.8321 36.9317 17.8658 37.0344C17.8942 37.1215 17.9216 37.2093 17.9469 37.2973C17.9653 37.362 17.9825 37.4277 17.9819 37.4955C17.9817 37.5162 17.9818 37.537 17.9819 37.5577C17.9821 37.6197 17.9823 37.6817 17.9754 37.7436C17.964 37.8433 17.9505 37.9427 17.937 38.0421C17.929 38.1002 17.9211 38.1583 17.9136 38.2165C17.8886 38.4094 17.8616 38.6039 17.7527 38.7734C17.7409 38.7915 17.744 38.8078 17.7618 38.8199C17.7785 38.8317 17.7956 38.8431 17.8127 38.8544C17.8198 38.8592 17.827 38.8639 17.8341 38.8687L18.0971 39.0474C18.0924 39.0286 18.0885 39.0137 18.0849 39.0001C18.0826 38.991 18.0804 38.9825 18.0783 38.974C18.0763 38.9649 18.0744 38.9557 18.0726 38.9465C18.07 38.9339 18.0675 38.9212 18.0643 38.9085C18.0117 38.7112 18.0427 38.5226 18.1244 38.3393C18.1659 38.2456 18.2338 38.1726 18.3035 38.0986C18.3732 38.0249 18.4541 37.9953 18.5501 38.0042C18.7209 38.0197 18.8759 38.0814 19.0197 38.1738C19.0396 38.1866 19.0595 38.1993 19.0794 38.2121C19.2217 38.3032 19.3641 38.3944 19.495 38.5023C19.5323 38.5332 19.5714 38.5619 19.6106 38.5906C19.658 38.6254 19.7056 38.6602 19.7501 38.6992C19.8434 38.7805 19.9287 38.8696 20.014 38.9587C20.0479 38.9941 20.0818 39.0295 20.1162 39.0644C20.2828 39.234 20.3944 39.4305 20.4308 39.6667C20.4362 39.701 20.4523 39.7135 20.4853 39.709C20.4933 39.7078 20.5015 39.7071 20.5096 39.7064C20.5195 39.7056 20.5293 39.7048 20.5389 39.7031C20.6623 39.6814 20.7848 39.6962 20.9063 39.7198C21.0211 39.7423 21.0568 39.8136 21.0111 39.9225C20.9822 39.9906 20.9348 40.0436 20.8755 40.0859C20.7275 40.1913 20.575 40.2898 20.4156 40.3767C20.3428 40.4165 20.2724 40.4611 20.2044 40.508L20.1979 40.5125C20.156 40.5411 20.114 40.5699 20.0835 40.6085C20.0874 40.6231 20.0953 40.6275 20.1031 40.632C20.2192 40.7038 20.3369 40.7737 20.4599 40.8335C20.5184 40.862 20.5777 40.8891 20.6369 40.9163C20.7489 40.9675 20.8609 41.0188 20.9681 41.0794C21.1462 41.1798 21.3311 41.2655 21.5165 41.3504C21.5196 41.3518 21.5227 41.3533 21.5257 41.3549C21.5425 41.3632 21.5603 41.3721 21.5872 41.3659C21.5829 41.3527 21.5814 41.3438 21.5772 41.3364C21.4977 41.1949 21.4734 41.0392 21.4491 40.8835C21.4433 40.847 21.4376 40.8104 21.4312 40.7741C21.4193 40.708 21.4191 40.6406 21.4188 40.5731C21.4188 40.5619 21.4188 40.5507 21.4187 40.5395C21.4178 40.4461 21.4306 40.357 21.4725 40.2725C21.5192 40.178 21.5601 40.0809 21.5958 39.9818C21.6119 39.9371 21.632 39.8947 21.6592 39.856C21.7975 39.6599 21.9794 39.5232 22.214 39.4677C22.3703 39.431 22.523 39.4445 22.6522 39.554C22.7173 39.6091 22.7785 39.6682 22.8322 39.7348C22.8855 39.8009 22.9185 39.8773 22.9345 39.9591C22.9521 40.0492 22.9586 40.141 22.9441 40.2332C22.9365 40.2817 22.9306 40.3308 22.9255 40.3798C22.9163 40.4672 22.9109 40.5549 22.9055 40.6426C22.9008 40.7202 22.896 40.7978 22.8885 40.8752C22.8744 41.0239 22.853 41.1718 22.8317 41.3197C22.8258 41.3603 22.82 41.4008 22.8142 41.4414C22.8012 41.5353 22.7954 41.6276 22.8212 41.7206C22.8299 41.751 22.8427 41.7676 22.8737 41.7714C22.8928 41.7738 22.9117 41.7767 22.9306 41.7796C22.9538 41.7831 22.9769 41.7866 23.0004 41.7892C23.0471 41.7949 23.0512 41.7889 23.0417 41.7438C23.0097 41.5919 23.0461 41.4516 23.1345 41.3303C23.236 41.191 23.3752 41.0897 23.5254 41.0072C23.6768 40.9241 23.8343 40.8535 23.997 40.7948C24.1091 40.754 24.2234 40.726 24.3424 40.7129C24.4505 40.7012 24.5587 40.6932 24.6669 40.6852C24.7016 40.6826 24.7363 40.68 24.771 40.6774C24.8993 40.6676 25.0261 40.6685 25.1522 40.6929C25.1901 40.7002 25.2146 40.6929 25.2394 40.6627C25.3581 40.5171 25.4997 40.3979 25.6648 40.3072C25.6732 40.3027 25.6815 40.2981 25.6899 40.2935C25.8306 40.2161 25.9712 40.1389 26.1285 40.0967C26.2681 40.0591 26.4099 40.0405 26.5532 40.0355C26.6721 40.0311 26.7905 40.045 26.906 40.0759C26.9808 40.0957 27.0476 40.1303 27.1097 40.1765C27.2554 40.2847 27.3303 40.4381 27.3849 40.6045C27.4086 40.6774 27.4226 40.7528 27.413 40.8295C27.3883 41.0284 27.3007 41.2026 27.1857 41.3615C27.0986 41.4823 26.9725 41.5578 26.8359 41.6143L26.8297 41.6168C26.8128 41.6237 26.7962 41.6305 26.7814 41.6401C26.7671 41.6495 26.7689 41.664 26.7835 41.6723C26.7928 41.6776 26.8046 41.6798 26.8155 41.6808C27.0052 41.6961 27.1955 41.7075 27.3857 41.7025C27.4651 41.7008 27.4656 41.6986 27.4765 41.6194C27.5053 41.414 27.5946 41.2418 27.7481 41.1005C27.8661 40.9922 27.9959 40.9018 28.1308 40.8165C28.2583 40.7362 28.3964 40.6895 28.5465 40.674C28.6765 40.6603 28.8058 40.6625 28.9353 40.6761C28.9776 40.6803 28.985 40.6706 28.9715 40.6322C28.9629 40.608 28.9543 40.5837 28.9457 40.5595C28.8884 40.3981 28.8311 40.2369 28.7856 40.0715C28.7191 39.8302 28.6726 39.5877 28.6903 39.3357C28.7123 39.0232 28.7628 38.7172 28.882 38.4254C28.909 38.3587 28.9402 38.2941 28.9859 38.2379C29.0032 38.2168 29.0209 38.1973 29.0459 38.1852C29.1069 38.1559 29.1714 38.1712 29.2268 38.2321C29.2649 38.2736 29.2942 38.3217 29.3175 38.373C29.4286 38.618 29.5257 38.8679 29.5945 39.1287C29.6816 39.4566 29.7388 39.7895 29.7721 40.1267C29.7927 40.3327 29.7967 40.5384 29.778 40.7443C29.7767 40.7588 29.7754 40.7733 29.7741 40.7878C29.762 40.9249 29.7499 41.0622 29.7232 41.1978C29.713 41.2489 29.7214 41.2586 29.7608 41.245C29.9107 41.1923 30.0605 41.1391 30.2099 41.0837C30.2654 41.0631 30.2674 41.0571 30.2601 40.998C30.2437 40.864 30.2136 40.7333 30.1574 40.6098C30.1396 40.5705 30.1212 40.5314 30.1029 40.4923C30.0688 40.4199 30.0347 40.3473 30.0043 40.2733C29.9054 40.0318 29.8325 39.7838 29.8323 39.5193C29.8326 39.4417 29.8472 39.368 29.8812 39.298C29.9529 39.15 30.0631 39.0386 30.2047 38.9573C30.2465 38.9332 30.2888 38.9101 30.3312 38.887C30.3597 38.8715 30.3881 38.856 30.4163 38.8402C30.4579 38.8168 30.5003 38.7948 30.5426 38.7729C30.6554 38.7145 30.7681 38.6561 30.8648 38.5709C30.9014 38.5387 30.9395 38.5081 30.9775 38.4775C30.9936 38.4645 31.0096 38.4516 31.0256 38.4386C31.1401 38.3454 31.2678 38.2774 31.4108 38.2389C31.4263 38.2347 31.4419 38.2306 31.4576 38.2266C31.4918 38.2176 31.526 38.2087 31.5598 38.1985C31.7962 38.127 32.0254 38.1614 32.2508 38.2463C32.2974 38.2638 32.3394 38.2897 32.3782 38.3204C32.3979 38.336 32.4175 38.3519 32.4372 38.3678C32.4646 38.39 32.4921 38.4123 32.52 38.4338C32.5676 38.4704 32.5988 38.5175 32.6233 38.5718C32.6647 38.6645 32.6885 38.7623 32.7124 38.86C32.7193 38.8883 32.7262 38.9166 32.7336 38.9447C32.7605 39.0502 32.7728 39.1575 32.7701 39.2645C32.7643 39.5002 32.71 39.7254 32.607 39.9386C32.605 39.9428 32.6025 39.947 32.6 39.9511C32.5924 39.964 32.5845 39.9771 32.5896 39.9937C32.5998 40.0009 32.6089 39.997 32.6174 39.9932C32.6189 39.9926 32.6203 39.9919 32.6218 39.9914C32.6874 39.9645 32.747 39.9721 32.8057 39.9796C32.8694 39.9878 32.9321 39.9958 33.0001 39.9593C33.2186 39.8422 33.4604 39.6829 33.6892 39.5322C33.7842 39.4696 33.8769 39.4086 33.9647 39.3526C34.0247 39.3112 34.0845 39.2695 34.1441 39.2275C34.1507 39.2225 34.1573 39.2174 34.164 39.2124C34.2229 39.1676 34.2817 39.1229 34.3468 39.0828C35.7357 38.079 37 36.9107 38.1177 35.5968C39.538 33.9273 40.6922 32.0579 41.5483 30.0406C43.3265 25.8506 43.7235 21.2842 42.6963 16.8349C41.7106 12.8838 39.7419 9.27912 37.0029 6.41029C35.0117 4.32462 32.689 2.74787 30.4551 1.93711C28.6043 1.26538 28.001 1.23812 27.6575 1.2226C27.5864 1.21939 27.5264 1.21668 27.4688 1.20886Z" fill="black"/>
<path fill-rule="evenodd" clip-rule="evenodd" d="M16.5307 10.4504L9.91992 25.9739H10.6681L16.6381 11.6287L20.3367 23.6218H20.7261L25.4573 11.8509L27.0915 15.499L27.397 14.7696L25.6373 10.4504L25.3099 10.4504L20.5769 22.1913L16.8468 10.4504H16.5307ZM28.6341 15.2185L21.7832 31.3037H22.5585L28.8371 16.4402L32.1522 24.4003H27.5582V24.8773H32.3794L35.1458 31.3512L35.8212 31.3037L29.0243 15.2185H28.6341Z" fill="black"/>
<path fill-rule="evenodd" clip-rule="evenodd" d="M310.673 34.7256H309.227V8.98462H313.15C313.15 8.98462 319.899 9.34281 320.051 14.7368C320.19 19.6897 317.16 20.774 315.671 21.3068L315.559 21.3471L315.478 21.3765C315.419 21.3977 315.364 21.4183 315.313 21.4383C317.647 22.464 319.119 23.9162 320.313 26.5182C321.235 28.3858 323.69 31.9386 324.39 32.7029C324.858 33.2147 326.187 33.5106 327.014 33.6947C327.422 33.7856 327.708 33.8493 327.708 33.8983V34.8695C323.609 34.3936 322.672 32.7636 319.916 27.9686L319.915 27.9666C319.78 27.7325 319.641 27.4909 319.498 27.2416C316.893 22.5656 314.79 22.1702 313.82 21.9876L313.779 21.9799L313.718 21.9682C313.684 21.9617 313.652 21.9552 313.622 21.9487C312.764 21.7623 310.673 21.9487 310.673 21.9487V34.7256ZM310.673 9.68085V21.0437C310.673 21.0437 319.003 21.4385 319.288 15.3501C319.572 9.26167 310.673 9.68085 310.673 9.68085ZM223.121 9.00822L212.019 34.641H213.275L223.45 10.9551L228.822 23.64H221.377V24.4001H229.19L233.673 34.641H234.767L223.753 9.00822H223.121ZM283.292 34.641L294.394 9.00822H295.026L306.04 34.641H304.946L300.463 24.4001H292.65V23.64H300.095L294.723 10.9551L284.548 34.641H283.292ZM261.69 9.03657H260.245C260.245 9.03657 260.008 25.0641 260.245 27.2414C260.481 29.4187 261.896 34.7257 270.105 34.7257C278.314 34.7257 279.816 29.4665 279.965 27.2414C280.113 25.0164 279.965 9.03657 279.965 9.03657H278.519C278.519 9.03657 278.701 24.9153 278.519 27.2414C278.337 29.5676 276.907 33.4497 270.063 33.4497C263.218 33.4497 261.967 29.5353 261.69 27.2414C261.413 24.9476 261.69 9.03657 261.69 9.03657ZM342.944 9.13772V10.1491H332.413V21.1732H342.738V22.1845H332.413V33.7143H343.254V34.7257H330.968V9.13772H342.944ZM244.891 33.4693C248.691 35.1636 253.819 34.5726 256.963 34.1707C256.963 33.7047 256.961 33.2597 256.958 32.8341C253.138 33.4472 247.496 33.6075 244.898 32.1061C241.596 30.1975 239.306 26.9208 239.306 21.7612C239.306 16.6015 241.258 13.702 244.898 11.7391C246.792 10.7173 250.098 9.78504 256.064 11.0669C256.062 10.6468 256.062 10.2115 256.062 9.76029L255.917 9.74165C250.622 9.05677 249.339 8.89075 246.214 9.68919C242.142 10.7293 237.661 15.2994 238.046 21.9304C238.419 28.3731 240.888 31.6839 244.891 33.4693ZM347.885 9.13772H346.439V34.6896H359.834V33.8154H347.885V9.13772ZM374.089 9.00822L362.987 34.641H364.243L374.418 10.9551L379.789 23.64H372.345V24.4001H380.158L384.641 34.641H385.735L374.721 9.00822H374.089ZM128.224 34.8188L139.31 9.05583H139.941L150.94 34.8188H149.847L145.37 24.5258H137.569V23.7619H145.003L139.638 11.0126L129.478 34.8188H128.224ZM65.7295 31.1186H65.8844H65.9876L73.9979 11.3381L78.9474 23.2944L83.7391 34.8695H85.0767L74.3026 8.98463L73.7483 8.98464L65.8069 28.5375L57.8655 8.98464L57.3112 8.98463L46.5371 34.8695H47.8747L52.6664 23.2944L57.616 11.3381L65.6262 31.1186H65.7295ZM87.7277 9.05662H89.1712C89.1712 9.05662 88.8948 25.0883 89.1712 27.3996C89.4476 29.7109 90.6974 33.655 97.533 33.655C104.369 33.655 105.796 29.7435 105.978 27.3996C106.16 25.0558 105.978 9.05662 105.978 9.05662H107.422C107.422 9.05662 107.571 25.1577 107.422 27.3996C107.273 29.6416 105.773 34.9407 97.5748 34.9407C89.3766 34.9407 87.9637 29.5935 87.7277 27.3996C87.4917 25.2058 87.7277 9.05662 87.7277 9.05662ZM122.317 9.41641C122.616 9.46026 122.889 9.50042 123.131 9.53029V10.7955C123.09 10.7955 122.966 10.7689 122.774 10.728C121.257 10.4042 115.524 9.18079 114.032 13.1262C113.447 14.6738 114.165 16.5598 115.712 17.8371C116.694 18.6479 118.05 19.3847 119.389 20.1122L119.389 20.1123C120.293 20.6033 121.189 21.0902 121.957 21.5928C125.52 23.9239 126.913 30.903 121.253 33.6703C115.638 36.4156 111.765 33.4114 110.715 32.5972L110.69 32.5781C111.088 32.2219 111.22 32.1135 111.342 32.0133C111.445 31.9284 111.541 31.8494 111.786 31.6306C111.831 31.6552 111.904 31.7186 112.007 31.8079L112.007 31.808C112.528 32.2598 113.812 33.3747 116.126 33.4829C116.186 33.4857 116.247 33.4888 116.31 33.492C117.565 33.5555 119.25 33.6409 121.606 31.8453C124.079 29.9608 123.783 24.2916 120.62 22.2054C119.949 21.7632 119.171 21.3603 118.369 20.9447C115.385 19.3994 112.065 17.68 112.695 13.1262C114.161 8.21839 119.421 8.99096 122.317 9.41641ZM164.702 34.9083C164.257 34.9013 163.838 34.8947 163.453 34.8947V9.05662C168.833 9.05662 170.104 9.05662 172.624 9.86837C176.651 11.1655 181.166 15.5211 180.782 22.2024C180.397 28.8838 177.731 31.7899 174.35 33.5193C171.43 35.0135 167.531 34.9525 164.702 34.9083ZM173.627 32.4553C170.141 33.6216 167.397 33.6216 164.937 33.6216V10.3356C169.476 10.3356 170.988 10.347 173.049 11.4682C176.684 13.446 179.772 17.1282 179.59 22.2026C179.407 27.2769 177.064 31.3051 173.627 32.4553ZM196.017 9.05662V10.0757H185.5V21.1834H195.811V22.2024H185.5V33.8197H196.326V34.8387H184.056V9.05662H196.017Z" fill="black"/>
</svg>
