<svg width="201" height="88" viewBox="0 0 201 88" fill="none" xmlns="http://www.w3.org/2000/svg">
<path fill-rule="evenodd" clip-rule="evenodd" d="M49.7866 86.507L56.3392 71.4759H56.7124L63.2133 86.507H62.5673L59.9214 80.5017H55.3101V80.056H59.7041L56.5334 72.6176L50.5282 86.507H49.7866ZM25.8511 71.4764H26.7043C26.5954 77.7121 26.5954 81.2794 26.7043 82.1784C26.8677 83.5269 27.6064 85.828 31.6466 85.828C35.6869 85.828 36.5307 83.5459 36.6383 82.1784C36.7101 81.2668 36.7101 77.6994 36.6383 71.4764H37.4916C37.5501 77.7391 37.5501 81.3064 37.4916 82.1784C37.4037 83.4864 36.5169 86.5781 31.6713 86.5781C26.8257 86.5781 25.9906 83.4584 25.8511 82.1784C25.7581 81.3251 25.7581 77.7578 25.8511 71.4764ZM46.7763 71.7527C45.2481 71.5662 41.5643 70.6922 40.608 73.8507C40.1357 77.222 43.4222 77.9306 45.2922 79.1478C47.1621 80.365 47.3366 83.6727 45.8752 84.7721C44.4138 85.8716 43.3887 85.7623 42.6364 85.7276C40.9983 85.6519 40.233 84.7339 40.0709 84.6469C39.7557 84.9251 39.8578 84.8158 39.4233 85.1996C40.0219 85.6576 42.3214 87.4514 45.6665 85.8369C49.0117 84.2224 48.1885 80.1505 46.0828 78.7904C44.9562 78.0628 43.3638 77.3916 42.3915 76.5992C41.4771 75.854 41.0525 74.7536 41.3984 73.8507C42.3915 71.2582 46.5643 72.4909 46.7763 72.4909C46.7763 72.2762 46.7763 72.0244 46.7763 71.7527ZM71.3859 71.4768C73.9252 71.48 74.67 71.5176 76.03 71.95C78.41 72.7068 81.0786 75.248 80.8515 79.1462C80.6245 83.0443 79.0482 84.7398 77.0503 85.7489C75.0524 86.7579 72.2796 86.5513 70.6094 86.5513V71.4764L71.3859 71.4768ZM71.8663 72.2225L71.4862 72.2224V85.8085L71.825 85.8082C73.1928 85.8045 74.7209 85.7561 76.6226 85.128C78.6542 84.4569 80.0394 82.1068 80.1471 79.1462C80.2548 76.1856 78.4297 74.0373 76.2811 72.8834C75.1224 72.2611 74.2572 72.2246 71.8663 72.2225ZM89.8566 72.071V71.4764H82.787V86.5187H90.0395V85.9241H83.6402V79.1462H89.7347V78.5516H83.6402V72.071H89.8566ZM174.744 72.145V71.5519H167.675V86.5566H174.927V85.9636H168.528V79.2026H174.622V78.6095H168.528V72.145H174.744ZM125.933 71.4926H126.786C126.677 77.7127 126.677 81.2711 126.786 82.1679C126.949 83.513 127.688 85.8084 131.728 85.8084C135.767 85.8084 136.611 83.532 136.719 82.1679C136.79 81.2585 136.79 77.7001 136.719 71.4926H137.572C137.63 77.7396 137.63 81.2981 137.572 82.1679C137.484 83.4727 136.597 86.5566 131.752 86.5566C126.907 86.5566 126.072 83.4447 125.933 82.1679C125.84 81.3167 125.84 77.7583 125.933 71.4926ZM139.536 86.507L146.088 71.4759H146.461L152.962 86.507H152.316L149.67 80.5017H145.059V80.056H149.453L146.282 72.6176L140.277 86.507H139.536ZM97.4687 86.507L104.021 71.4759H104.394L110.895 86.507H110.249L107.603 80.5017H102.992V80.056H107.386L104.215 72.6176L98.2102 86.507H97.4687ZM123.464 71.917C120.267 71.5062 119.512 71.4029 117.651 71.8753C115.248 72.4852 112.603 75.1651 112.83 79.0535C113.051 82.8315 114.508 84.7729 116.871 85.8199C119.113 86.8135 122.14 86.4669 123.996 86.2312C123.996 85.9575 123.995 85.6962 123.993 85.4462C121.739 85.8068 118.408 85.9009 116.875 85.0204C114.926 83.9013 113.574 81.9798 113.574 78.9542C113.574 75.9285 114.726 74.2283 116.875 73.0772C117.993 72.4781 119.944 71.9314 123.465 72.6831C123.464 72.4375 123.464 72.1819 123.464 71.917ZM176.807 71.5519H177.66V86.0229H184.712V86.5355H176.807V71.5519ZM157.158 71.4622C159.814 71.6022 161.172 72.7265 161.232 74.8352C161.318 77.8719 159.358 78.4287 158.532 78.7287C158.498 78.7412 158.466 78.7532 158.435 78.765C159.813 79.3665 160.682 80.2181 161.386 81.7439C161.931 82.839 163.38 84.9224 163.792 85.3706C164.205 85.8188 165.751 85.9846 165.751 86.0715V86.6411C163.213 86.3483 162.729 85.311 160.905 82.168C159.595 79.8313 158.5 79.3176 157.851 79.1505L157.768 79.1305C157.636 79.1001 157.524 79.0831 157.437 79.0643C157.1 78.9914 156.519 78.9914 155.696 79.0643V86.5566H154.843V71.4622H157.158ZM160.781 75.1948C160.893 72.8146 159.198 71.7065 155.696 71.8703V78.5335C158.974 78.6879 160.669 77.5749 160.781 75.1948ZM186.573 86.507L193.126 71.4759H193.499L200 86.507H199.354L196.708 80.5017H192.097V80.056H196.491L193.32 72.6176L187.315 86.507H186.573ZM12.3528 84.3668L7.58886 72.8466C6.60766 75.1677 5.62646 77.4888 4.64525 79.81C3.66405 82.1311 2.71415 84.3782 1.7955 86.5513H1L7.40759 71.4759H7.73728L12.4602 82.8637L17.1832 71.4759H17.5129L23.9205 86.5513H23.125C22.2064 84.3782 21.2565 82.1311 20.2753 79.81L17.3317 72.8466L12.5678 84.3668H12.3528Z" fill="black" stroke="black"/>
<path fill-rule="evenodd" clip-rule="evenodd" d="M68.4275 30.0077C68.2726 10.8549 88.9049 -4.61368 109.656 1.26458C109.906 1.3356 111.964 2.02704 113.944 2.82745L114.156 2.9136C115.213 3.34621 116.229 3.80486 116.913 4.21091C118.979 5.43638 120.946 6.99711 122.76 8.84975C126.81 12.9853 129.72 18.1809 131.177 23.8749C131.177 23.8759 131.177 23.8771 131.178 23.8783C132.698 30.2967 132.111 36.8844 129.479 42.929C128.213 45.8388 126.505 48.5352 124.404 50.9432C122.408 53.2312 120.096 55.2133 117.524 56.8412L117.487 56.8669C117.352 56.9613 117.24 57.0366 117.193 57.06C117.161 57.0754 117.131 57.09 117.101 57.1041L117.023 57.1519C116.996 57.1686 116.966 57.1782 116.935 57.1812C116.739 57.2695 116.56 57.3445 116.341 57.4572C116.098 57.5819 115.843 57.6826 115.613 57.8329C115.486 57.9157 115.352 57.9924 115.206 58.0419C115.156 58.0582 115.135 58.0923 115.121 58.1384C115.075 58.2913 115.024 58.4431 114.977 58.5956C114.816 59.1237 114.5 59.5352 114.013 59.817C113.771 59.9565 113.511 60.0142 113.23 59.953C113.101 59.925 112.995 59.8596 112.914 59.7569C112.836 59.658 112.797 59.5435 112.771 59.4247C112.75 59.3312 112.728 59.2378 112.72 59.1427C112.716 59.1056 112.697 59.0921 112.66 59.1019C112.641 59.1065 112.621 59.1096 112.603 59.1152C112.365 59.1872 112.127 59.2581 111.891 59.3319C111.68 59.3977 111.681 59.3995 111.655 59.6129C111.64 59.7329 111.634 59.8544 111.612 59.9736C111.551 60.3166 111.463 60.6512 111.317 60.9726C111.192 61.2471 111.016 61.4699 110.757 61.6319C110.626 61.7124 110.493 61.7861 110.36 61.8619C110.041 62.0443 109.71 62.2075 109.418 62.4317C109.38 62.4612 109.338 62.4865 109.295 62.5096C109.103 62.6114 108.898 62.6565 108.681 62.6426C108.51 62.6317 108.415 62.5387 108.386 62.374C108.372 62.2988 108.366 62.2233 108.359 62.1476C108.33 61.8482 108.365 61.5548 108.441 61.2661C108.514 60.9874 108.577 60.709 108.584 60.4195C108.588 60.2473 108.573 60.076 108.571 59.904C108.571 59.8212 108.556 59.8129 108.471 59.8082C108.406 59.8051 108.34 59.8043 108.275 59.805C108.233 59.8054 108.192 59.8066 108.151 59.8081L107.902 59.8181C107.778 59.8221 107.654 59.8225 107.53 59.8089C107.48 59.8035 107.451 59.8223 107.437 59.8717C107.358 60.1528 107.228 60.4148 107.109 60.6805C106.932 61.0786 106.684 61.4273 106.334 61.7024C106.172 61.83 105.995 61.9332 105.796 61.9908C105.471 62.0841 105.204 62.0008 105.05 61.688C105.011 61.6066 104.982 61.5224 104.953 61.4376L104.946 61.4155C104.925 61.3562 104.917 61.3566 104.837 61.3505C104.397 61.3183 103.969 61.2351 103.56 61.0684C103.311 60.9672 103.071 60.8466 102.881 60.6561C102.685 60.4594 102.493 60.2581 102.319 60.0415C102.272 59.9822 102.222 59.9509 102.147 59.9552C101.926 59.9677 101.711 59.917 101.494 59.898C101.448 59.8937 101.401 59.8869 101.359 59.8717C101.269 59.84 101.183 59.8428 101.091 59.8654C100.817 59.9309 100.543 59.9921 100.291 60.1221C100.17 60.1852 100.052 60.2546 99.9294 60.3148C99.6278 60.4623 99.3187 60.5934 99.0091 60.7237C98.7982 60.8128 98.5814 60.8827 98.3572 60.9311C98.255 60.9536 98.1504 60.9655 98.0453 60.9511C97.9071 60.9323 97.7783 60.798 97.7768 60.6733C97.7754 60.5354 97.8143 60.4107 97.8905 60.2937C97.9981 60.1282 98.1432 59.9997 98.309 59.8957C98.7011 59.6489 99.1209 59.4551 99.5571 59.2961C99.583 59.2866 99.6141 59.2857 99.6365 59.2579C99.5549 59.2115 99.473 59.1798 99.3899 59.1515C99.175 59.079 98.9757 58.9757 98.7828 58.8612C98.3874 58.6271 97.9641 58.4455 97.5546 58.2384C97.4947 58.2081 97.4856 58.2125 97.4573 58.2709C97.4219 58.3431 97.3898 58.4162 97.3492 58.4856C97.2148 58.7169 97.0613 58.9355 96.8757 59.13C96.7602 59.2514 96.6297 59.3547 96.457 59.4017C96.1908 59.474 95.9348 59.4338 95.6876 59.3406C95.3707 59.2204 95.0847 59.0525 94.8528 58.8009C94.7124 58.648 94.6005 58.4844 94.5389 58.2881C94.4575 58.0298 94.4586 57.7758 94.6093 57.5417C94.8076 57.2322 95.0575 56.9767 95.4254 56.8554C95.5019 56.8299 95.5042 56.8188 95.4551 56.756C95.3639 56.6389 95.2694 56.5222 95.2058 56.3896C95.1348 56.2409 95.0166 56.1408 94.888 56.0471L94.7757 55.9697C94.571 55.8204 94.3524 55.6917 94.1357 55.5597C94.0875 55.5301 94.0547 55.5365 94.017 55.5753C93.9764 55.6169 93.9307 55.6535 93.8854 55.6904C93.6162 55.9092 93.3277 56.103 93.0454 56.3052C92.9129 56.4002 92.7717 56.4788 92.6188 56.5387C92.3614 56.6393 92.0912 56.6599 91.8186 56.6664C91.7004 56.6691 91.5815 56.6588 91.4703 56.6192C91.1421 56.5024 90.9325 56.2505 91.0584 55.8727C91.1477 55.6051 91.3182 55.3915 91.5181 55.2034C91.7554 54.9807 92.0311 54.8077 92.3465 54.7022C92.3691 54.6947 92.3958 54.6919 92.4179 54.6687C92.4005 54.6607 92.3894 54.6543 92.3778 54.6499C92.1349 54.5638 91.8938 54.4726 91.6591 54.3661C91.5887 54.3343 91.5879 54.3374 91.5606 54.4129C91.4916 54.6079 91.3848 54.7779 91.2009 54.889C90.8613 55.0944 90.4922 55.1828 90.0937 55.1348C89.7916 55.099 89.5105 54.9909 89.233 54.8764C89.0848 54.8154 88.9339 54.7578 88.8075 54.6597C88.5022 54.4232 88.4854 54.1965 88.6501 53.9358C88.7503 53.7767 88.8877 53.655 89.0509 53.5629C89.5128 53.3033 90.0016 53.1246 90.5412 53.1001C90.6901 53.093 90.8356 53.0999 90.9794 53.135C91.1865 53.1851 91.3494 53.2933 91.4444 53.4857C91.4777 53.5517 91.5128 53.6164 91.5457 53.6824C91.572 53.7341 91.5883 53.7883 91.5949 53.8465C91.6144 54.0121 91.6152 54.0132 91.784 54.0581C92.0686 54.1344 92.3486 54.2223 92.6178 54.3414C92.7818 54.4139 92.9412 54.4962 93.1026 54.573C93.1732 54.6067 93.1841 54.6007 93.1778 54.5278C93.1668 54.4011 93.1543 54.2744 93.1521 54.1468C93.149 53.9539 93.1589 53.7635 93.2155 53.5785C93.2785 53.3702 93.3324 53.1603 93.3816 52.9486C93.4071 52.8395 93.4446 52.734 93.505 52.6374C93.6133 52.4636 93.7674 52.3762 93.9806 52.3978C94.0589 52.4059 94.1353 52.4221 94.211 52.4429C94.3661 52.4859 94.4631 52.5862 94.5124 52.7323C94.5538 52.8563 94.5939 52.9812 94.6309 53.1064C94.6577 53.1986 94.6828 53.292 94.682 53.3885C94.6809 53.506 94.6859 53.624 94.6724 53.7416C94.6462 53.9664 94.6119 54.19 94.5822 54.4147C94.5456 54.6892 94.5062 54.9659 94.3471 55.2073C94.3299 55.233 94.3343 55.2562 94.3604 55.2734C94.3949 55.2973 94.4308 55.3198 94.466 55.3429C94.5895 55.4247 94.7134 55.5065 94.8502 55.5972C94.8389 55.5526 94.8303 55.5231 94.8228 55.4927C94.8156 55.4619 94.8103 55.4306 94.8023 55.3995C94.7255 55.1186 94.7708 54.8503 94.8901 54.5895C94.9507 54.4561 95.05 54.3522 95.1518 54.2469C95.2536 54.1419 95.3718 54.0998 95.5121 54.1124C95.7616 54.1345 95.9881 54.2223 96.1982 54.3538C96.4347 54.5021 96.6746 54.6463 96.8924 54.8213C97.0134 54.9188 97.1465 55.0004 97.2652 55.1015C97.4558 55.2631 97.6233 55.4466 97.8 55.6213C98.0434 55.8626 98.2064 56.1422 98.2595 56.4785C98.2675 56.5272 98.291 56.545 98.3391 56.5386C98.3649 56.5348 98.3918 56.5347 98.4175 56.5302C98.5978 56.4993 98.7767 56.5204 98.9543 56.554C99.122 56.5859 99.1742 56.6874 99.1074 56.8424C99.0651 56.9394 98.9959 57.0147 98.9092 57.075C98.693 57.225 98.4702 57.3652 98.2373 57.4889C98.131 57.5455 98.0282 57.6089 97.9288 57.6757C97.8645 57.7187 97.799 57.761 97.7522 57.8187C97.7579 57.8395 97.7693 57.8458 97.7808 57.8522C97.9504 57.9544 98.1223 58.0538 98.302 58.139C98.549 58.2562 98.805 58.3571 99.0444 58.489C99.3046 58.6318 99.5748 58.7538 99.8457 58.8746C99.8744 58.8874 99.9023 58.907 99.9489 58.8966C99.9426 58.8778 99.9405 58.8652 99.9343 58.8546C99.7909 58.606 99.7704 58.3265 99.721 58.0544C99.7007 57.9447 99.7037 57.8326 99.7027 57.7206C99.7015 57.5876 99.7201 57.4608 99.7814 57.3405C99.8497 57.206 99.9094 57.0678 99.9616 56.9267C99.9851 56.8632 100.014 56.8028 100.054 56.7477C100.256 56.4686 100.522 56.2741 100.865 56.1951C101.093 56.1428 101.316 56.162 101.505 56.3178C101.6 56.3962 101.69 56.4804 101.768 56.5752C101.846 56.6692 101.894 56.7779 101.917 56.8944C101.943 57.0226 101.953 57.1533 101.931 57.2845C101.92 57.3535 101.912 57.4234 101.904 57.4932C101.879 57.7276 101.873 57.9637 101.85 58.1982C101.824 58.4679 101.78 58.7357 101.742 59.004C101.722 59.1376 101.714 59.269 101.752 59.4013C101.764 59.4446 101.783 59.4682 101.828 59.4737C101.89 59.4812 101.951 59.4922 102.014 59.499C102.082 59.507 102.088 59.4985 102.074 59.4343C102.027 59.2182 102.08 59.0185 102.209 58.8458C102.358 58.6476 102.561 58.5034 102.781 58.386C103.002 58.2677 103.232 58.1673 103.47 58.0837C103.633 58.0257 103.8 57.9857 103.974 57.9671C104.183 57.945 104.391 57.9323 104.6 57.9165C104.788 57.9025 104.973 57.9038 105.157 57.9386C105.213 57.949 105.248 57.9386 105.285 57.8955C105.458 57.6883 105.665 57.5186 105.906 57.3897C106.124 57.2732 106.34 57.1536 106.584 57.09C106.787 57.0365 106.995 57.01 107.204 57.0028C107.378 56.9966 107.551 57.0164 107.719 57.0603C107.829 57.0885 107.926 57.1377 108.017 57.2035C108.23 57.3576 108.339 57.5759 108.419 57.8126C108.454 57.9163 108.474 58.0237 108.46 58.1328C108.424 58.4159 108.296 58.6638 108.128 58.8899C108.001 59.062 107.816 59.1694 107.617 59.2498C107.589 59.2609 107.562 59.2712 107.537 59.2865C107.516 59.2999 107.519 59.3206 107.54 59.3323C107.554 59.3399 107.571 59.343 107.587 59.3444C107.864 59.3662 108.142 59.3824 108.42 59.3753C108.536 59.3728 108.537 59.3697 108.553 59.2571C108.595 58.9647 108.725 58.7196 108.95 58.5185C109.122 58.3643 109.312 58.2357 109.509 58.1143C109.695 57.9999 109.897 57.9335 110.116 57.9114C110.306 57.892 110.495 57.8951 110.684 57.9144C110.746 57.9204 110.757 57.9066 110.737 57.852C110.641 57.5876 110.542 57.3247 110.465 57.0539C110.368 56.7106 110.3 56.3654 110.326 56.0068C110.358 55.5621 110.432 55.1266 110.606 54.7112C110.646 54.6164 110.691 54.5243 110.758 54.4444C110.783 54.4144 110.809 54.3866 110.846 54.3694C110.935 54.3276 111.029 54.3495 111.11 54.4361C111.166 54.4952 111.209 54.5636 111.243 54.6366C111.405 54.9853 111.547 55.341 111.647 55.7121C111.775 56.1787 111.858 56.6525 111.907 57.1324C111.937 57.4257 111.943 57.7183 111.915 58.0114C111.895 58.2272 111.878 58.4435 111.835 58.6568C111.82 58.7296 111.833 58.7434 111.89 58.724C112.109 58.649 112.328 58.5733 112.546 58.4944C112.627 58.4651 112.63 58.4565 112.62 58.3725C112.596 58.1818 112.552 57.9957 112.47 57.82C112.395 57.6603 112.314 57.5033 112.246 57.3411C112.101 56.9974 111.995 56.6445 111.995 56.2679C111.995 56.1576 112.017 56.0527 112.066 55.9531C112.171 55.7425 112.332 55.5838 112.539 55.4681C112.641 55.4108 112.745 55.3573 112.848 55.3014C113.07 55.1797 113.309 55.0851 113.503 54.9182C113.579 54.853 113.66 54.7922 113.738 54.7298C113.905 54.5972 114.092 54.5004 114.301 54.4457C114.373 54.4266 114.447 54.4093 114.519 54.3881C114.864 54.2863 115.199 54.3353 115.528 54.4561C115.596 54.481 115.657 54.5178 115.714 54.5615C115.783 54.6148 115.851 54.6705 115.921 54.723C115.991 54.7751 116.037 54.8421 116.072 54.9194C116.15 55.0896 116.186 55.2716 116.233 55.4501C116.273 55.6002 116.291 55.7529 116.287 55.9052C116.278 56.2406 116.199 56.5611 116.048 56.8646C116.036 56.8891 116.013 56.9117 116.023 56.943C116.04 56.9551 116.056 56.9453 116.07 56.9397C116.27 56.8599 116.432 56.9938 116.623 56.894C117.088 56.6513 117.625 56.281 118.071 56.0066L117.928 56.0958C118.091 55.9872 118.253 55.877 118.414 55.7654C118.471 55.7229 118.531 55.682 118.594 55.6441L118.512 55.6966C120.569 54.2562 122.439 52.5757 124.09 50.683C126.164 48.306 127.85 45.6444 129.1 42.7721C131.697 36.8064 132.277 30.3046 130.777 23.9697C129.337 18.3441 126.462 13.2117 122.462 9.12704C119.555 6.15744 116.163 3.91245 112.901 2.75807C110.116 1.77263 109.265 1.76134 108.771 1.73877L108.729 1.73678L108.689 1.7346C108.636 1.73151 108.588 1.72753 108.54 1.72119C94.6729 1.72122 77.2703 11.2384 75.094 30.1392C73.6432 42.7397 77.1685 52.184 85.67 58.4721C74.2783 52.2643 68.5308 42.7762 68.4275 30.0077Z" fill="black"/>
<path fill-rule="evenodd" clip-rule="evenodd" d="M110.202 21.9455L120.063 44.7464L119.083 44.8136L115.069 35.6368H108.074V34.9607H114.74L109.93 23.6772L100.821 44.7464H99.6956L109.635 21.9455H110.202ZM92.5337 15.1868L97.9456 31.8294L104.812 15.1868H105.288L107.841 21.3092L107.397 22.3431L105.026 17.172L98.1621 33.8572H97.5971L92.231 16.8569L83.5693 37.1912H82.4839L92.0752 15.1868H92.5337Z" fill="black"/>
</svg>
