<svg width="38" height="38" viewBox="0 0 38 38" fill="none" xmlns="http://www.w3.org/2000/svg">
<g clip-path="url(#clip0_528_1336)">
<rect width="38" height="38" fill="white"/>
<path fill-rule="evenodd" clip-rule="evenodd" d="M23.723 1.04402C15.5222 1.04403 5.23017 6.81686 3.94313 18.2815C2.65609 29.7461 10.1978 35.4672 10.1978 35.4672C10.1978 35.4672 0.0921419 29.8191 0.000512841 18.2017C-0.0911162 6.58422 12.111 -2.79851 24.383 0.76705C24.616 0.834751 27.4877 1.83173 28.6752 2.5542C29.8969 3.29753 31.0604 4.24422 32.1333 5.36797C34.5283 7.87644 36.2495 11.028 37.1108 14.4817L37.1113 14.4838C38.0103 18.377 37.663 22.3729 36.107 26.0393C35.3579 27.8043 34.348 29.4399 33.1055 30.9005C31.916 32.2987 30.5368 33.5085 29.0025 34.5001C28.9265 34.5544 28.864 34.5973 28.837 34.611C28.8235 34.6179 28.8102 34.6245 28.7972 34.6309C28.7782 34.6428 28.7593 34.6546 28.7403 34.6665C28.7228 34.6773 28.7037 34.6833 28.6844 34.6846C28.658 34.6968 28.6322 34.7086 28.6065 34.7204C28.5192 34.7602 28.4336 34.7993 28.3335 34.852C28.2868 34.8767 28.2393 34.8998 28.1917 34.9229C28.0933 34.9707 27.9949 35.0185 27.9032 35.08C27.8284 35.1302 27.7491 35.1768 27.6624 35.2068C27.6334 35.2167 27.6208 35.2374 27.6124 35.2654C27.5979 35.3145 27.5827 35.3635 27.5675 35.4125C27.554 35.4559 27.5405 35.4993 27.5275 35.5428C27.4325 35.8633 27.2455 36.113 26.9573 36.284C26.8142 36.3686 26.6607 36.4037 26.4948 36.3665C26.4182 36.3495 26.356 36.3098 26.308 36.2475C26.2619 36.1875 26.2389 36.118 26.2232 36.0459C26.2108 35.9892 26.1978 35.9325 26.1929 35.8747C26.1907 35.8522 26.1794 35.8441 26.1577 35.85C26.1537 35.851 26.1496 35.8519 26.1455 35.8528C26.1382 35.8543 26.1309 35.8559 26.124 35.8581C26.0869 35.8696 26.0497 35.8811 26.0125 35.8926C25.9091 35.9246 25.8058 35.9566 25.7029 35.9895C25.5788 36.0294 25.5786 36.0306 25.5634 36.1593L25.5633 36.1601C25.5604 36.1853 25.558 36.2106 25.5556 36.236C25.5511 36.2838 25.5466 36.3316 25.5383 36.3789C25.5022 36.5871 25.4503 36.7901 25.3639 36.9851C25.2902 37.1517 25.1861 37.2869 25.0326 37.3852C24.9739 37.4225 24.914 37.4573 24.8541 37.4921C24.8355 37.503 24.8168 37.5139 24.7982 37.5248C24.7535 37.551 24.7085 37.5766 24.6634 37.6021C24.5183 37.6844 24.3732 37.7667 24.2414 37.8705C24.2187 37.8884 24.1937 37.9038 24.1683 37.9178C24.0552 37.9796 23.9336 38.0069 23.8055 37.9985C23.7043 37.9919 23.6481 37.9354 23.631 37.8355C23.6243 37.7975 23.6208 37.7594 23.6173 37.7211C23.6166 37.7134 23.6159 37.7058 23.6152 37.6981C23.5981 37.5164 23.6185 37.3384 23.6634 37.1632C23.7066 36.9941 23.7441 36.8251 23.7481 36.6495C23.7497 36.5877 23.7472 36.5261 23.7446 36.4646C23.7429 36.4219 23.7411 36.3793 23.7407 36.3366C23.7405 36.2864 23.7318 36.2814 23.6814 36.2785C23.6428 36.2766 23.604 36.2761 23.5654 36.2765C23.5187 36.277 23.472 36.2791 23.4254 36.2812C23.3253 36.2856 23.2251 36.2901 23.125 36.2789C23.0955 36.2756 23.0783 36.287 23.0701 36.317C23.0318 36.4568 22.9732 36.5887 22.9147 36.7205C22.9018 36.7496 22.8889 36.7787 22.8762 36.8078C22.7714 37.0494 22.6249 37.2609 22.4183 37.4279C22.3225 37.5053 22.2178 37.568 22.0998 37.6029C21.908 37.6595 21.7501 37.6089 21.6594 37.4191C21.6362 37.3705 21.6196 37.3204 21.6029 37.2698L21.602 37.2672C21.5861 37.2184 21.5855 37.2184 21.5358 37.2145L21.5334 37.2143C21.2732 37.1948 21.0199 37.1442 20.7781 37.0431C20.6308 36.9817 20.4889 36.9085 20.3767 36.7928C20.2608 36.6735 20.1472 36.5514 20.0449 36.4199C20.017 36.3839 19.9872 36.3649 19.9432 36.3675C19.8561 36.3726 19.7705 36.3606 19.6851 36.3486C19.6423 36.3426 19.5995 36.3367 19.5566 36.3328C19.5297 36.3302 19.502 36.326 19.4769 36.3168C19.4239 36.2976 19.3731 36.2993 19.3186 36.313C19.3091 36.3153 19.2995 36.3177 19.29 36.32C19.1378 36.3573 18.9858 36.3945 18.8459 36.4687C18.8164 36.4845 18.7873 36.5009 18.7582 36.5172C18.7165 36.5407 18.6748 36.5642 18.632 36.5857C18.4537 36.6752 18.271 36.7547 18.088 36.8338C17.9633 36.8879 17.8351 36.9302 17.7026 36.9596C17.6422 36.9733 17.5804 36.9805 17.5183 36.9717C17.4365 36.9603 17.3604 36.8789 17.3595 36.8032C17.3587 36.7195 17.3816 36.6438 17.4267 36.5728C17.4903 36.4724 17.5761 36.3944 17.6741 36.3313C17.9059 36.1815 18.154 36.064 18.4119 35.9675C18.4158 35.966 18.4198 35.9649 18.4239 35.9638C18.4362 35.9604 18.4489 35.9569 18.4588 35.9443C18.4106 35.9162 18.3622 35.8969 18.313 35.8798C18.186 35.8358 18.0682 35.773 17.9542 35.7035C17.797 35.6081 17.6325 35.527 17.4679 35.4459C17.3877 35.4063 17.3074 35.3668 17.2281 35.3256C17.1927 35.3072 17.1873 35.3098 17.1705 35.3453C17.1652 35.3566 17.1599 35.3679 17.1546 35.3793C17.1395 35.4119 17.1245 35.4443 17.1067 35.4756C17.0272 35.6159 16.9365 35.7486 16.8268 35.8666C16.7585 35.9403 16.6814 36.003 16.5793 36.0315C16.4219 36.0753 16.2706 36.051 16.1245 35.9944C15.9371 35.9215 15.768 35.8195 15.631 35.6669C15.548 35.5741 15.4818 35.4748 15.4454 35.3557C15.3973 35.1989 15.3979 35.0448 15.4869 34.9027C15.6042 34.7149 15.7519 34.5599 15.9694 34.4863C16.0146 34.4708 16.016 34.4641 15.9869 34.426C15.9827 34.4204 15.9785 34.4148 15.9742 34.4092C15.9244 34.3437 15.8742 34.2778 15.8396 34.2036C15.7976 34.1133 15.7277 34.0526 15.6517 33.9958C15.6412 33.9881 15.6305 33.9807 15.6198 33.9733C15.6082 33.9653 15.5966 33.9572 15.5853 33.9488C15.4802 33.8701 15.3689 33.8008 15.2575 33.7315C15.2407 33.721 15.2238 33.7105 15.207 33.7C15.1785 33.682 15.1591 33.6859 15.1368 33.7094C15.1144 33.733 15.0894 33.7539 15.0644 33.7747L15.059 33.7793C14.9395 33.879 14.8135 33.9702 14.6875 34.0614C14.6457 34.0916 14.604 34.1218 14.5625 34.1523C14.4841 34.21 14.4006 34.2577 14.3103 34.294C14.1581 34.3551 13.9984 34.3675 13.8372 34.3715C13.7673 34.3732 13.6971 34.3669 13.6313 34.3428C13.4373 34.272 13.3134 34.1191 13.3878 33.8898C13.4406 33.7275 13.5414 33.5978 13.6595 33.4837C13.7998 33.3485 13.9628 33.2436 14.1492 33.1796C14.1521 33.1786 14.1551 33.1777 14.1581 33.1769C14.1693 33.1737 14.1812 33.1703 14.1914 33.1592C14.1812 33.1544 14.1746 33.1505 14.1677 33.1478C14.0241 33.0956 13.8816 33.0402 13.7429 32.9756C13.7014 32.9564 13.7008 32.9582 13.6848 33.0035L13.6846 33.004C13.6438 33.1223 13.5807 33.2255 13.472 33.2929C13.2713 33.4175 13.0531 33.4712 12.8175 33.442C12.6389 33.4203 12.4728 33.3547 12.3087 33.2852C12.3017 33.2822 12.2947 33.2793 12.2876 33.2763C12.2069 33.2424 12.1259 33.2084 12.0571 33.1537C11.8767 33.0101 11.8668 32.8726 11.9641 32.7144C12.0233 32.6178 12.1045 32.544 12.201 32.4881C12.4741 32.3306 12.763 32.2222 13.082 32.2073C13.17 32.203 13.256 32.2072 13.3411 32.2285C13.4635 32.2589 13.5598 32.3246 13.6159 32.4413C13.625 32.4598 13.6344 32.4782 13.6437 32.4965C13.6545 32.5178 13.6653 32.5391 13.6758 32.5607C13.6914 32.592 13.701 32.6249 13.7049 32.6603C13.7164 32.7608 13.7169 32.7614 13.8167 32.7887C13.9849 32.835 14.1505 32.8884 14.3096 32.9606C14.3728 32.9893 14.4348 33.0205 14.4968 33.0517C14.5299 33.0683 14.563 33.085 14.5962 33.1012C14.6379 33.1216 14.6444 33.118 14.6407 33.0738C14.6398 33.0639 14.639 33.0539 14.6381 33.044C14.6324 32.977 14.6266 32.91 14.6254 32.8425C14.6236 32.7255 14.6294 32.61 14.6629 32.4977C14.7001 32.3713 14.732 32.2439 14.7611 32.1155C14.7762 32.0492 14.7983 31.9852 14.834 31.9266C14.898 31.8211 14.9891 31.7681 15.1152 31.7812C15.1614 31.7862 15.2066 31.796 15.2514 31.8086C15.3431 31.8347 15.4004 31.8956 15.4295 31.9842C15.4541 32.0595 15.4777 32.1353 15.4996 32.2113C15.5155 32.2672 15.5303 32.3239 15.5299 32.3824C15.5297 32.4003 15.5297 32.4183 15.5298 32.4362C15.53 32.4897 15.5301 32.5433 15.5242 32.5967C15.5144 32.6828 15.5027 32.7686 15.491 32.8545C15.4842 32.9047 15.4773 32.9549 15.4709 33.0052C15.4492 33.1718 15.4259 33.3397 15.3319 33.4861C15.3217 33.5017 15.3243 33.5158 15.3398 33.5263C15.3541 33.5364 15.3689 33.5462 15.3836 33.556C15.3898 33.5601 15.396 33.5642 15.4022 33.5684L15.6293 33.7227C15.6267 33.712 15.6243 33.7027 15.622 33.6942C15.6187 33.6814 15.6158 33.6705 15.6131 33.6593C15.6113 33.6515 15.6097 33.6435 15.6081 33.6356C15.6059 33.6247 15.6037 33.6137 15.601 33.6028C15.5556 33.4323 15.5824 33.2695 15.6529 33.1112C15.6887 33.0303 15.7474 32.9672 15.8076 32.9033C15.8677 32.8396 15.9376 32.8141 16.0206 32.8218C16.168 32.8352 16.3019 32.8885 16.4261 32.9683C16.4433 32.9793 16.4604 32.9903 16.4776 33.0013C16.6005 33.08 16.7236 33.1588 16.8366 33.252C16.8688 33.2787 16.9026 33.3034 16.9364 33.3282C16.9774 33.3583 17.0184 33.3884 17.0569 33.422C17.1375 33.4922 17.2112 33.5692 17.2848 33.6461C17.3141 33.6767 17.3434 33.7073 17.3731 33.7375C17.517 33.8839 17.6133 34.0536 17.6448 34.2576C17.6495 34.2872 17.6633 34.298 17.6918 34.2941C17.6988 34.2931 17.7058 34.2925 17.7129 34.2919C17.7214 34.2912 17.7299 34.2905 17.7382 34.289C17.8447 34.2703 17.9505 34.2831 18.0554 34.3034C18.1546 34.3228 18.1854 34.3845 18.146 34.4785C18.121 34.5373 18.0801 34.5831 18.0288 34.6196C17.901 34.7107 17.7694 34.7958 17.6316 34.8708C17.5688 34.9051 17.508 34.9436 17.4493 34.9842L17.4436 34.988C17.4075 35.0128 17.3712 35.0376 17.3449 35.0709C17.3482 35.0835 17.355 35.0874 17.3618 35.0912C17.462 35.1533 17.5637 35.2136 17.6699 35.2653C17.7204 35.2899 17.7716 35.3133 17.8228 35.3367C17.9195 35.381 18.0163 35.4253 18.1088 35.4777C18.2626 35.5644 18.4223 35.6384 18.5825 35.7117C18.5851 35.7129 18.5878 35.7142 18.5904 35.7155C18.6049 35.7227 18.6202 35.7304 18.6435 35.7251C18.6423 35.7213 18.6413 35.7179 18.6404 35.7148C18.6387 35.7087 18.6373 35.7039 18.6349 35.6996C18.5662 35.5774 18.5452 35.4429 18.5242 35.3085C18.5193 35.2769 18.5143 35.2454 18.5088 35.214C18.4985 35.1569 18.4983 35.0987 18.4981 35.0404C18.4981 35.0307 18.498 35.0211 18.498 35.0114C18.4972 34.9307 18.5082 34.8537 18.5445 34.7807C18.5848 34.6991 18.6201 34.6153 18.6509 34.5297C18.6649 34.4911 18.6822 34.4545 18.7057 34.421C18.8251 34.2517 18.9822 34.1337 19.1849 34.0857C19.3198 34.054 19.4516 34.0657 19.5633 34.1602C19.6195 34.2078 19.6724 34.2589 19.7187 34.3164C19.7647 34.3735 19.7933 34.4394 19.8071 34.5101C19.8223 34.5879 19.8279 34.6672 19.8154 34.7469C19.8088 34.7887 19.8037 34.8311 19.7993 34.8735C19.7913 34.9489 19.7867 35.0247 19.782 35.1004C19.7779 35.1674 19.7738 35.2345 19.7674 35.3013C19.7552 35.4298 19.7367 35.5575 19.7183 35.6852C19.7132 35.7202 19.7081 35.7553 19.7032 35.7903C19.6919 35.8714 19.6869 35.9511 19.7092 36.0314C19.7168 36.0577 19.7278 36.072 19.7546 36.0753C19.771 36.0774 19.7873 36.0798 19.8037 36.0823C19.8237 36.0854 19.8437 36.0884 19.864 36.0907C19.9043 36.0955 19.9079 36.0904 19.8997 36.0514C19.872 35.9203 19.9034 35.7991 19.9798 35.6943C20.0675 35.574 20.1877 35.4865 20.3174 35.4153C20.4482 35.3435 20.5842 35.2826 20.7247 35.2319C20.8215 35.1966 20.9202 35.1724 21.023 35.1611C21.1164 35.151 21.2098 35.1441 21.3033 35.1372C21.3332 35.135 21.3632 35.1327 21.3931 35.1304C21.5039 35.122 21.6134 35.1227 21.7224 35.1438C21.7551 35.1502 21.7763 35.1439 21.7976 35.1177C21.9002 34.992 22.0225 34.889 22.1651 34.8108C22.1723 34.8068 22.1795 34.8029 22.1867 34.7989C22.3083 34.7321 22.4297 34.6654 22.5655 34.6289C22.6861 34.5965 22.8086 34.5804 22.9324 34.5761C23.035 34.5723 23.1373 34.5843 23.237 34.6109C23.3016 34.6281 23.3593 34.6579 23.4129 34.6978C23.5387 34.7913 23.6034 34.9238 23.6506 35.0675C23.6711 35.1304 23.6832 35.1956 23.6749 35.2618C23.6536 35.4336 23.5779 35.584 23.4786 35.7212C23.4033 35.8256 23.2944 35.8908 23.1765 35.9396C23.1601 35.9463 23.1437 35.9526 23.1294 35.9619C23.1171 35.97 23.1186 35.9826 23.1312 35.9897C23.1392 35.9943 23.1494 35.9962 23.1588 35.997C23.3227 36.0103 23.487 36.0201 23.6513 36.0158C23.7198 36.0143 23.7203 36.0124 23.7297 35.944C23.7545 35.7667 23.8317 35.6179 23.9643 35.4958C24.0661 35.4023 24.1783 35.3243 24.2948 35.2506C24.4049 35.1812 24.5242 35.1409 24.6538 35.1275C24.7661 35.1157 24.8778 35.1176 24.9895 35.1293C25.0261 35.133 25.0325 35.1246 25.0208 35.0914C25.0134 35.0705 25.006 35.0495 24.9985 35.0285C24.949 34.8892 24.8996 34.75 24.8603 34.6072C24.8029 34.3988 24.7627 34.1893 24.778 33.9717C24.797 33.7019 24.8406 33.4376 24.9436 33.1855C24.9669 33.128 24.9938 33.0721 25.0333 33.0236C25.0482 33.0054 25.0635 32.9886 25.0851 32.9781C25.1377 32.9528 25.1935 32.966 25.2414 33.0186C25.2742 33.0545 25.2995 33.096 25.3197 33.1403C25.4156 33.3519 25.4995 33.5677 25.5589 33.7929C25.6341 34.0761 25.6835 34.3636 25.7123 34.6548C25.7301 34.8328 25.7335 35.0104 25.7174 35.1882C25.7162 35.2008 25.7151 35.2133 25.714 35.2258C25.7036 35.3443 25.6931 35.4628 25.67 35.5799C25.6613 35.6241 25.6685 35.6324 25.7025 35.6206C25.832 35.5752 25.9614 35.5292 26.0903 35.4813C26.1383 35.4635 26.14 35.4583 26.1337 35.4073C26.1195 35.2916 26.0936 35.1787 26.045 35.0721C26.0297 35.0382 26.0138 35.0044 25.9979 34.9706C25.9685 34.908 25.939 34.8454 25.9128 34.7815C25.8274 34.5729 25.7644 34.3587 25.7643 34.1302C25.7645 34.0633 25.7772 33.9996 25.8065 33.9392C25.8684 33.8114 25.9636 33.7151 26.0859 33.6449C26.122 33.6241 26.1586 33.6041 26.1951 33.5842C26.2197 33.5708 26.2443 33.5574 26.2687 33.5438C26.3045 33.5236 26.3411 33.5046 26.3778 33.4856C26.4751 33.4352 26.5725 33.3848 26.656 33.3112C26.6876 33.2834 26.7205 33.2569 26.7533 33.2305C26.7672 33.2193 26.781 33.2082 26.7948 33.1969C26.8937 33.1164 27.004 33.0577 27.1275 33.0245C27.1704 33.0129 27.2137 33.0024 27.2562 32.9896C27.4604 32.9278 27.6583 32.9575 27.853 33.0308C27.8932 33.046 27.9295 33.0683 27.963 33.0948C27.98 33.1083 27.997 33.122 28.0139 33.1358C28.0376 33.155 28.0613 33.1742 28.0854 33.1928C28.1265 33.2244 28.1536 33.2651 28.1746 33.312C28.2104 33.3921 28.231 33.4765 28.2516 33.5608C28.2576 33.5853 28.2636 33.6097 28.2699 33.6341C28.2931 33.7252 28.3038 33.8178 28.3014 33.9102C28.2964 34.1138 28.2495 34.3083 28.1606 34.4924C28.1589 34.4961 28.1567 34.4996 28.1546 34.5032C28.148 34.5143 28.1412 34.5257 28.1456 34.54C28.1544 34.5462 28.1622 34.5428 28.1696 34.5396C28.1709 34.539 28.1721 34.5385 28.1734 34.538C28.23 34.5148 28.2815 34.5214 28.3322 34.5278C28.3872 34.5349 28.4413 34.5418 28.5001 34.5103C28.6888 34.4092 28.8976 34.2716 29.0952 34.1414C29.1773 34.0873 29.2575 34.0345 29.3335 33.9861C29.3851 33.9505 29.4365 33.9146 29.4877 33.8785C29.4935 33.8741 29.4994 33.8697 29.5052 33.8652C29.5561 33.8265 29.607 33.7878 29.6633 33.7532C30.8627 32.8863 31.9546 31.8773 32.9199 30.7427C34.1465 29.3009 35.1433 27.6864 35.8827 25.9442C37.4184 22.3255 37.7612 18.3818 36.8741 14.5392C36.0228 11.1269 34.3226 8.01378 31.9571 5.53616C30.2373 3.7349 28.2314 2.37316 26.3021 1.67296C24.7037 1.09282 24.1827 1.06929 23.886 1.05589C23.8246 1.05311 23.7728 1.05077 23.723 1.04402Z" fill="black"/>
<path fill-rule="evenodd" clip-rule="evenodd" d="M14.2763 9.0254L8.56696 22.432H9.21308L14.369 10.043L17.5633 20.4007H17.8996L21.9856 10.2349L23.3969 13.3855L23.6608 12.7556L22.1411 9.02539L21.8583 9.0254L17.7707 19.1652L14.5492 9.0254H14.2763ZM24.7292 13.1432L18.8125 27.0351H19.4821L24.9045 14.1983L27.7675 21.073H23.8V21.4849H27.9637L30.3529 27.076L30.9363 27.0351L25.0662 13.1432H24.7292Z" fill="black"/>
</g>
<defs>
<clipPath id="clip0_528_1336">
<rect width="38" height="38" fill="white"/>
</clipPath>
</defs>
</svg>
