<svg width="201" height="18" viewBox="0 0 201 18" fill="none" xmlns="http://www.w3.org/2000/svg">
<path fill-rule="evenodd" clip-rule="evenodd" d="M49.7866 16.507L56.3392 1.47591H56.7124L63.2133 16.507H62.5673L59.9214 10.5017H55.3101V10.056H59.7041L56.5334 2.61757L50.5282 16.507H49.7866ZM25.8511 1.47642H26.7043C26.5954 7.71209 26.5954 11.2794 26.7043 12.1784C26.8677 13.5269 27.6064 15.828 31.6466 15.828C35.6869 15.828 36.5307 13.5459 36.6383 12.1784C36.7101 11.2668 36.7101 7.69943 36.6383 1.47642H37.4916C37.5501 7.73907 37.5501 11.3064 37.4916 12.1784C37.4037 13.4864 36.5169 16.5781 31.6713 16.5781C26.8257 16.5781 25.9906 13.4584 25.8511 12.1784C25.7581 11.3251 25.7581 7.75777 25.8511 1.47642ZM46.7763 1.75273C45.2481 1.56617 41.5643 0.69222 40.608 3.8507C40.1357 7.22205 43.4222 7.93063 45.2922 9.14783C47.1621 10.365 47.3366 13.6727 45.8752 14.7721C44.4138 15.8716 43.3887 15.7623 42.6364 15.7276C40.9983 15.6519 40.233 14.7339 40.0709 14.6469C39.7557 14.9251 39.8578 14.8158 39.4233 15.1996C40.0219 15.6576 42.3214 17.4514 45.6665 15.8369C49.0117 14.2224 48.1885 10.1505 46.0828 8.79044C44.9562 8.06279 43.3638 7.39163 42.3915 6.59923C41.4771 5.854 41.0525 4.75363 41.3984 3.8507C42.3915 1.25819 46.5643 2.49089 46.7763 2.49089C46.7763 2.27621 46.7763 2.02437 46.7763 1.75273ZM71.3859 1.47675C73.9252 1.48002 74.67 1.51762 76.03 1.95004C78.41 2.7068 81.0786 5.24804 80.8515 9.14617C80.6245 13.0443 79.0482 14.7398 77.0503 15.7489C75.0524 16.7579 72.2796 16.5513 70.6094 16.5513V1.47642L71.3859 1.47675ZM71.8663 2.22254L71.4862 2.22241V15.8085L71.825 15.8082C73.1928 15.8045 74.7209 15.7561 76.6226 15.128C78.6542 14.4569 80.0394 12.1068 80.1471 9.14617C80.2548 6.18558 78.4297 4.03731 76.2811 2.88336C75.1224 2.26112 74.2572 2.22462 71.8663 2.22254ZM89.8566 2.07099V1.47642H82.787V16.5187H90.0395V15.9241H83.6402V9.14617H89.7347V8.55163H83.6402V2.07099H89.8566ZM174.744 2.14496V1.55189H167.675V16.5566H174.927V15.9636H168.528V9.20256H174.622V8.60948H168.528V2.14496H174.744ZM125.933 1.49259H126.786C126.677 7.71272 126.677 11.2711 126.786 12.1679C126.949 13.513 127.688 15.8084 131.728 15.8084C135.767 15.8084 136.611 13.532 136.719 12.1679C136.79 11.2585 136.79 7.7001 136.719 1.49259H137.572C137.63 7.73964 137.63 11.2981 137.572 12.1679C137.484 13.4727 136.597 16.5566 131.752 16.5566C126.907 16.5566 126.072 13.4447 125.933 12.1679C125.84 11.3167 125.84 7.7583 125.933 1.49259ZM139.536 16.507L146.088 1.47591H146.461L152.962 16.507H152.316L149.67 10.5017H145.059V10.056H149.453L146.282 2.61757L140.277 16.507H139.536ZM97.4687 16.507L104.021 1.47591H104.394L110.895 16.507H110.249L107.603 10.5017H102.992V10.056H107.386L104.215 2.61757L98.2102 16.507H97.4687ZM123.464 1.91697C120.267 1.50623 119.512 1.40286 117.651 1.87529C115.248 2.48523 112.603 5.16509 112.83 9.05351C113.051 12.8315 114.508 14.7729 116.871 15.8199C119.113 16.8135 122.14 16.4669 123.996 16.2312C123.996 15.9575 123.995 15.6962 123.993 15.4462C121.739 15.8068 118.408 15.9009 116.875 15.0204C114.926 13.9013 113.574 11.9798 113.574 8.95416C113.574 5.92853 114.726 4.22827 116.875 3.07719C117.993 2.47806 119.944 1.93139 123.465 2.68306C123.464 2.43753 123.464 2.18194 123.464 1.91697ZM176.807 1.55189H177.66V16.0229H184.712V16.5355H176.807V1.55189ZM157.158 1.46216C159.814 1.60219 161.172 2.72654 161.232 4.83525C161.318 7.87195 159.358 8.42872 158.532 8.72872C158.498 8.74121 158.466 8.75325 158.435 8.765C159.813 9.36645 160.682 10.2181 161.386 11.7439C161.931 12.839 163.38 14.9224 163.792 15.3706C164.205 15.8188 165.751 15.9846 165.751 16.0715V16.6411C163.213 16.3483 162.729 15.311 160.905 12.168C159.595 9.83133 158.5 9.31755 157.851 9.15046L157.768 9.13052C157.636 9.10014 157.524 9.08311 157.437 9.06427C157.1 8.99142 156.519 8.99142 155.696 9.06427V16.5566H154.843V1.46216H157.158ZM160.781 5.19476C160.893 2.8146 159.198 1.70647 155.696 1.87034V8.53353C158.974 8.68785 160.669 7.57492 160.781 5.19476ZM186.573 16.507L193.126 1.47591H193.499L200 16.507H199.354L196.708 10.5017H192.097V10.056H196.491L193.32 2.61757L187.315 16.507H186.573ZM12.3528 14.3668L7.58886 2.8466C6.60766 5.16771 5.62646 7.48883 4.64525 9.80995C3.66405 12.1311 2.71415 14.3782 1.7955 16.5513H1L7.40759 1.47591H7.73728L12.4602 12.8637L17.1832 1.47591H17.5129L23.9205 16.5513H23.125C22.2064 14.3782 21.2565 12.1311 20.2753 9.80995L17.3317 2.8466L12.5678 14.3668H12.3528Z" fill="black" stroke="black"/>
</svg>
