<svg width="157" height="75" viewBox="0 0 157 75" fill="none" xmlns="http://www.w3.org/2000/svg">
<g clip-path="url(#clip0_875_1284)">
<path d="M156.458 18.6039C156.469 18.3412 156.397 18.0817 156.254 17.8609C156.111 17.6401 155.903 17.4689 155.659 17.3706C143.808 12.1816 130.941 11.114 118.924 6.46166C118.723 6.37783 118.504 6.34799 118.288 6.3751C118.072 6.40222 117.867 6.48534 117.694 6.61618C117.64 5.95316 117.592 5.29013 117.539 4.6243C117.535 4.46213 117.495 4.30282 117.423 4.15734C117.351 4.01185 117.249 3.88363 117.122 3.78148C117.091 3.56112 116.994 3.35539 116.843 3.19139C116.692 3.0274 116.495 2.91283 116.278 2.8628C112.705 1.75519 109.054 0.916568 105.356 0.353991C103.039 0.0196704 100.413 -0.595591 98.7155 1.44685C96.7929 3.78148 95.7598 7.37472 94.738 10.156C93.5171 13.5416 92.5029 16.9979 91.7007 20.5059C90.4623 26.0444 89.5562 31.6516 88.9871 37.2978C88.8745 38.3316 88.7675 39.3711 88.6662 40.4022C88.5986 41.0989 88.531 41.79 88.4719 42.4868C87.7992 49.9486 87.0814 57.43 89.2629 64.7036L89.3643 65.0464C89.4215 65.291 89.5651 65.5068 89.7688 65.6543C89.9725 65.8019 90.2226 65.8713 90.4733 65.8499C90.6828 66.0047 90.9361 66.0893 91.1968 66.0915C91.8836 66.1111 92.5536 66.1729 93.232 66.246C95.1011 66.4595 96.9533 66.8079 98.8337 66.9371C98.935 66.9371 99.0307 66.9568 99.1293 66.9568C101.944 67.0832 104.759 67.0916 107.574 67.1169C107.881 68.1086 109.575 68.4795 110.144 67.2377C110.642 66.1448 111.112 65.0379 111.552 63.9254C125.3 64.5351 139.118 65.0323 152.754 62.7455C153.787 62.5713 154.043 61.5318 153.708 60.8013C153.728 60.762 153.747 60.7339 153.767 60.6946C155.366 56.9075 156.112 52.9462 156.461 48.9231C156.65 46.7234 156.723 44.5067 156.742 42.2789C156.855 34.7637 156.903 27.2429 156.97 19.7221C156.978 19.5088 156.936 19.2966 156.847 19.1025C156.758 18.9084 156.625 18.7377 156.458 18.6039ZM108.433 64.4761C105.449 64.4367 102.445 64.4423 99.4586 64.3103C99.2081 64.2962 98.9604 64.2822 98.7042 64.2541C97.8597 64.1895 96.9871 64.0743 96.1314 63.9535C95.0054 63.7934 93.8794 63.6108 92.7281 63.518C92.3791 63.4843 92.03 63.4647 91.6781 63.4506C89.8456 57.1098 90.4846 50.4795 91.0476 43.9898C91.1152 43.206 91.1883 42.4278 91.2559 41.644C91.3516 40.6578 91.4501 39.6774 91.5571 38.68C91.9821 34.626 92.5057 30.5749 93.2235 26.5602C94.2932 20.5733 95.8048 14.6483 98.0737 9.00418C98.4903 7.95065 98.8731 6.75665 99.4502 5.79864C100.97 3.23645 102.327 2.62681 105.046 3.02293C108.381 3.51942 111.674 4.26126 114.899 5.24237C115.141 8.36644 115.349 11.5102 115.49 14.6483C116.244 31.5891 115.149 48.7433 108.433 64.4761ZM128.785 61.7762C123.377 61.7537 117.975 61.5458 112.568 61.307C118.507 44.9338 118.983 27.2317 117.916 9.89476C117.888 9.56606 117.877 9.24298 117.849 8.91709L117.922 8.95642C120.621 9.9959 123.383 10.8724 126.164 11.645C127.918 12.1339 132.148 12.3277 133.069 14.0386C135.113 17.8374 136.423 21.986 136.931 26.268C135.805 26.0882 134.513 29.0915 133.384 29.2516C131.678 29.2797 131.343 31.9402 133.063 31.9206C134.783 31.9009 136.379 28.8021 137.992 29.4736C138.994 29.8894 139.892 29.01 139.828 28.0267C139.456 23.2254 137.764 19.0029 136.348 14.3954C138.859 13.96 141.578 15.3282 143.909 16.0811C147.194 17.1318 150.479 18.1572 153.702 19.4187C153.89 19.4735 154.06 19.5772 154.195 19.7193C154.312 19.9246 154.361 20.1615 154.336 20.3964C154.293 23.6356 154.268 26.8805 154.234 30.1169C154.201 33.5444 153.609 37.4664 154.119 40.8517C154.094 43.3802 154.032 45.9395 153.818 48.4736C153.488 52.3197 152.796 56.1209 151.284 59.7113C151.207 59.893 151.17 60.0897 151.177 60.2872C145.176 61.1909 139.118 61.6772 133.049 61.7425C132.983 61.655 132.903 61.5783 132.813 61.5149" fill="black"/>
<path d="M107.624 7.41405C107.196 5.76492 104.528 6.147 104.973 7.82422C105.345 9.24626 105.642 10.6866 105.865 12.1395C105.679 12.1965 105.507 12.2923 105.361 12.4204C99.6129 17.5588 97.6959 25.8775 96.1393 33.1089C95.7762 34.7613 95.5139 36.4341 95.3539 38.1181C95.2666 39.0368 95.2188 39.9611 95.2131 40.8854C95.1568 45.6108 96.173 50.2576 98.9345 54.2329C99.2554 54.6965 99.6044 55.1516 99.9732 55.5927C100.108 55.7618 100.285 55.8933 100.486 55.9748C100.089 57.2165 99.6776 58.4555 99.2498 59.6832L99.1681 59.9192C98.5826 61.5458 101.077 62.546 101.654 60.9165C102.231 59.2871 102.763 57.7054 103.272 56.0843C104.152 53.2468 104.925 50.384 105.589 47.496C106.563 43.3268 107.329 39.1014 107.906 34.8536C109.13 25.7764 110.003 16.3648 107.624 7.41405ZM105.243 34.5249C104.821 37.6752 104.286 40.8011 103.638 43.9027C103.275 45.6333 102.887 47.3471 102.448 49.058C102.121 50.384 101.763 51.6988 101.386 53.0136C98.9964 49.7351 98.0084 45.962 97.9014 42.0569C97.8711 41.0102 97.8984 39.9626 97.983 38.9188C98.1266 37.0702 98.4003 35.2339 98.8022 33.4236C100.117 27.3496 101.744 19.9384 106.236 15.2973C106.771 21.6943 106.101 28.1756 105.243 34.5249Z" fill="black"/>
<path d="M65.5231 55.205C65.267 55.0982 65.0052 54.9887 64.7434 54.8903C63.8426 54.5392 62.9306 54.2386 62.0016 53.9492C59.5583 53.2075 57.0643 52.5838 54.7616 51.4825C57.0924 49.6929 58.604 47.5297 58.2071 44.4927C57.955 42.0809 56.9899 39.7984 55.4344 37.9355C53.768 35.8425 51.1557 34.6569 50.7307 31.6284C50.4492 29.5157 48.4787 28.5689 46.8629 30.5411C43.6793 34.4153 40.7095 38.7053 41.3963 43.9224C41.7032 46.2823 43.4625 46.8638 44.5181 48.6619C39.8425 49.412 35.8537 51.6455 31.5019 53.3929C32.1127 52.7496 33.0923 51.7916 33.4723 51.0667C34.6461 48.8361 33.8551 47.4735 31.3358 46.9846C29.5483 46.6363 27.2513 47.6617 25.3653 47.7095C23.4286 44.2483 20.5124 42.1075 16.5095 41.8434C11.848 41.5428 8.47009 43.2116 6.46023 47.3611C3.0429 47.5493 1.03867 48.704 0.194187 52.2495C-0.391319 54.7105 0.388418 57.2109 1.97885 59.2084C2.39546 59.731 3.04853 59.9304 3.55803 60.2676C3.25683 64.0266 3.38351 66.7292 7.03729 68.9065C9.31457 70.2691 12.4983 70.2269 15.0711 69.2155C15.5139 68.9926 15.9311 68.7222 16.3153 68.4092C18.5447 69.1678 20.9965 69.7634 23.3189 69.6819C25.6412 69.6004 27.3442 68.9515 28.625 67.0748C29.0219 66.4932 28.822 65.9819 28.9543 65.3723C29.8833 65.125 30.7278 64.9424 31.4259 64.1923C33.6046 61.8605 34.5701 59.1859 33.5821 56.0619C38.6264 54.2835 42.4829 52.3394 47.9382 53.185C43.8763 55.5 38.7756 57.4525 37.143 62.1976C36.7939 63.2287 37.2443 64.035 38.7222 63.9479C43.3218 63.667 48.0649 65.5689 52.8278 64.2288C53.2637 64.1058 53.6884 63.946 54.0973 63.7512C54.5735 63.5285 55.0238 63.2544 55.44 62.9337C56.6012 62.0373 57.566 60.9129 58.2747 59.6298C58.5562 59.1607 58.8039 58.6718 59.0403 58.1746C59.1952 57.8543 59.3415 57.5256 59.4907 57.1969C59.6653 57.2362 59.8398 57.2755 60.0199 57.3233C61.2782 57.6576 62.6744 58.1942 63.8764 58.4302L64.2648 58.4976C66.7167 58.8376 67.8454 56.2051 65.5231 55.205ZM5.91694 56.09C5.64931 56.2521 5.3562 56.3679 5.04994 56.4327C4.7867 56.4716 4.51816 56.4162 4.29195 56.2763C4.06573 56.1365 3.89647 55.9211 3.81419 55.6686C3.46514 54.8257 3.22868 53.4828 3.63966 52.7243C5.0218 50.2099 7.05136 51.2971 8.89796 52.6569C9.02744 52.7439 9.13441 52.8929 9.25545 52.9856C8.5489 53.7694 8.16045 54.9184 7.33285 55.5534C6.91061 55.8821 6.2857 55.9102 5.91694 56.09ZM10.6854 66.26C9.6492 66.2149 8.66898 65.778 7.94369 65.0379C6.4743 63.4085 6.92469 61.7481 8.36875 60.2844C8.40816 60.2451 8.45601 60.1383 8.48979 60.1861C9.26108 61.2171 10.1788 61.9139 11.2372 62.6528C11.3835 62.7595 11.2372 62.914 11.2906 63.1613C11.3441 63.4085 11.2709 63.7372 11.4792 64.0856C12.0901 65.1475 12.4926 66.3415 10.6854 66.26ZM16.0591 45.4451C19.4371 45.6783 21.0894 48.0382 18.3843 50.4655C18.1096 50.7399 17.783 50.957 17.4235 51.1041C17.0639 51.2512 16.6786 51.3254 16.29 51.3224C15.3695 51.3505 14.4828 51.21 13.689 50.3307C11.437 47.8443 12.6672 45.2091 16.0591 45.4451ZM14.601 59.9248C13.689 59.5905 12.6306 59.2815 12.6671 58.2954C12.8163 54.4156 17.3484 54.5673 20.0761 55.9354C20.7291 56.2585 20.6813 57.0283 20.7544 57.652C20.7601 57.6855 20.7601 57.7197 20.7544 57.7531C20.5518 58.6915 20.4392 59.3882 19.4596 59.8855C18.0127 60.6075 15.9775 60.4417 14.601 59.9248ZM24.2393 65.9454C23.4202 66.4539 21.8889 66.1336 21.0303 65.9117C19.6659 65.5848 18.4068 64.9178 17.3709 63.9732C18.4144 63.939 19.4518 63.7997 20.4673 63.5574C20.8922 63.4371 21.3096 63.2917 21.7172 63.1219C22.3027 63.6641 23.2569 63.9928 23.8818 64.4086C24.5068 64.8244 25.0529 65.4341 24.2253 65.9454H24.2393ZM24.1718 53.3817C23.9775 53.289 23.5891 53.0474 23.6088 52.8535C23.8706 51.196 28.3379 48.8164 29.3738 50.8279C30.2774 52.5782 25.5511 54.0588 24.1718 53.3817ZM29.5201 60.984C29.1317 61.1385 28.7601 61.352 28.1971 61.2256C27.6341 61.0991 26.6039 61.2115 26.1225 60.6637C24.1211 58.3515 28.4871 58.3234 29.8495 59.3826C30.1788 59.6439 30.1985 60.703 29.5201 60.984ZM46.4998 42.321C45.1177 40.3544 46.3534 37.7557 47.7553 35.9521C48.7574 36.8904 48.7968 36.6685 50.0551 37.7754C53.0952 40.464 57.1459 45.7457 52.1156 48.822C51.6849 49.0861 51.1219 49.2912 50.8067 49.7407C50.787 49.7688 50.7391 49.7547 50.725 49.7407C49.295 47.1083 48.2873 44.8551 46.4857 42.321H46.4998ZM49.4358 61.5121C46.6631 61.897 43.8059 60.8575 40.991 61.1104C44.048 57.6127 47.9748 56.0534 52.4168 55.0027C52.6307 54.9578 52.9263 54.7976 53.1543 54.8426C53.9003 54.9971 54.5393 55.3539 55.2514 55.6011C54.1564 58.6522 52.915 61.0233 49.4217 61.5121H49.4358Z" fill="black"/>
<path d="M105.588 47.496C105.255 46.6936 104.864 45.9162 104.42 45.1698C104.183 44.7323 103.921 44.3092 103.634 43.9027C102.82 42.7022 101.722 41.7208 100.437 41.0455C100.422 41.0368 100.405 41.0302 100.389 41.0259C100.337 40.8162 100.234 40.6229 100.087 40.464C99.4903 39.8196 98.7745 39.296 97.9791 38.9216C97.1515 38.5163 96.2653 38.2432 95.3528 38.1125C95.3284 38.1038 95.3027 38.099 95.2768 38.0985C94.0213 37.9383 92.7659 38.2446 91.5554 38.6744C91.3359 38.7474 91.1135 38.8289 90.8911 38.916C90.4062 38.2281 89.7544 37.6743 88.9967 37.3062C86.5252 36.0532 83.0543 36.5505 81.6778 39.2307C81.1149 40.3095 81.1599 41.894 81.5709 43.2397C80.3917 43.0783 79.1907 43.2334 78.0916 43.6892C77.199 44.0529 76.4621 44.7168 76.0086 45.5659C75.8424 45.9803 75.7956 46.4327 75.8735 46.8723C74.6799 47.2543 73.6722 47.9258 73.2274 49.1058C70.2802 48.3219 66.4378 50.0638 65.1823 52.8254C64.8901 53.4703 64.743 54.1713 64.7517 54.8791C64.7537 55.1055 64.7697 55.3317 64.7995 55.5562C65.0134 57.2924 66.1141 57.8037 63.8847 58.4246C63.8687 58.4233 63.8527 58.4233 63.8368 58.4246C62.4012 58.8179 60.8699 58.4246 59.3723 58.1942C59.2625 58.1745 59.1556 58.1633 59.0486 58.1549C57.886 58.0144 56.746 58.0425 55.6707 58.7168C53.7537 59.936 53.4187 67.5917 54.0915 69.3476C54.3612 70.0653 54.7846 70.7156 55.332 71.2532C55.8794 71.7908 56.5378 72.2028 57.2611 72.4604C58.4152 72.8537 59.6116 72.7413 60.8023 72.6543C62.4603 72.5194 63.758 72.9352 65.3428 73.2583C66.7334 73.5392 67.8762 73.3173 68.7742 72.4857C71.6229 73.7471 75.7074 72.8425 77.6863 70.4742C78.0775 72.098 79.6764 73.3369 81.3091 74.0562C83.7524 75.1265 85.827 74.0337 87.6624 72.5138C89.5287 73.4521 91.4231 72.9549 93.2359 71.8564C93.692 71.5852 94.1318 71.2878 94.5533 70.9658C95.1212 70.5494 95.6473 70.079 96.1241 69.5611C96.7293 68.9177 97.1656 62.6218 97.4612 61.8914C99.3753 62.8241 101.903 61.6105 103.271 59.8518C105.152 57.4272 105.447 53.6851 105.242 50.4599C105.312 50.3953 105.375 50.3237 105.43 50.2464C106.038 49.426 105.937 48.4624 105.588 47.496ZM75.1219 69.2521C73.7144 69.6622 70.2577 70.5444 69.3991 69.8139C68.7517 69.2661 67.7524 69.2914 67.2879 70.0949C66.9783 70.6259 64.2928 69.8729 63.6285 69.828C62.2041 69.7268 60.7798 70.196 59.3695 70.1089L57.5342 69.6791C56.9937 68.4738 57.2527 61.7678 59.195 60.9249C59.5581 60.7564 60.9205 61.307 61.3568 61.3604C62.4271 61.4936 63.5131 61.4182 64.5546 61.1385C65.8833 60.762 67.7721 59.9445 68.214 58.478C68.3801 57.8936 68.1521 57.5312 68.1268 56.9609C68.0367 55.2527 67.0008 58.7589 68.4758 54.4324C68.3885 53.1934 68.8446 52.4349 69.8579 52.168C71.0196 51.4376 72.2825 51.5312 73.6468 52.449C74.2218 53.2411 75.0563 53.8076 76.0058 54.0503C77.6778 54.4858 78.3956 51.9039 76.7151 51.4628C75.7637 51.2156 75.3921 50.3026 76.2394 49.6648C76.6757 49.3361 76.9572 49.3445 77.4695 49.2434C77.6946 49.1824 77.8998 49.0638 78.0648 48.8991C78.2297 48.7345 78.3486 48.5297 78.4097 48.3051C78.7503 47.0577 78.4294 46.1727 80.0987 45.9255C81.3541 45.7429 82.6321 46.1193 83.8256 46.434C84.0724 46.5005 84.3331 46.4956 84.5772 46.42C85.6581 46.743 86.8292 46.6363 87.7159 45.8721C89.0107 44.7315 87.1107 42.8408 85.813 43.9729C85.6666 44.1022 84.7799 43.5122 84.6645 43.4111C84.3834 43.1348 84.1997 42.775 84.1409 42.3856C83.9326 41.5653 83.7721 40.6157 84.4702 40.0117C85.6919 38.9666 87.8285 39.1323 88.6758 40.4331C88.806 40.6277 88.9013 40.8435 88.9572 41.0708C89.2387 42.1244 90.3872 42.2227 91.0741 41.7282L91.2542 41.6608C92.5435 41.1916 93.9143 40.8011 95.212 40.9023C96.2204 40.9596 97.1742 41.3786 97.8975 42.0822C97.997 42.17 98.091 42.2638 98.179 42.3632C98.2509 42.4482 98.3342 42.5229 98.4267 42.5851C98.4675 42.7553 98.5468 42.914 98.6585 43.0489C98.7702 43.1838 98.9114 43.2913 99.0713 43.3633C100.157 43.9198 101.063 44.7722 101.684 45.8215C101.838 46.0632 102.23 46.6644 102.565 47.2852C102.462 47.407 102.387 47.55 102.346 47.704C102.305 47.858 102.299 48.0192 102.328 48.1758C102.37 48.4568 102.404 48.7658 102.435 49.0608C102.63 50.7796 102.612 52.5157 102.382 54.2301C102.281 55.2308 102.046 56.2135 101.684 57.1519C101.551 57.4666 100.206 59.3713 99.2402 59.6804C99.1237 59.7397 98.9897 59.7553 98.8626 59.7244C98.7355 59.6935 98.6238 59.618 98.5477 59.5118C98.3734 59.2755 98.1292 59.0997 97.8496 59.0089C97.81 58.4407 97.7224 57.8768 97.5878 57.3233C97.1909 55.6376 94.5984 56.3512 94.9953 58.0313C95.4429 59.936 94.8939 61.4166 93.5371 62.7792C93.3091 63.0067 93.0248 68.8812 92.718 69.1284C91.73 69.9207 90.4126 70.6371 89.2641 70.3281C88.9732 70.253 88.7029 70.1138 88.4731 69.9207C88.2159 69.6781 87.8755 69.5429 87.5216 69.5429C87.1678 69.5429 86.8273 69.6781 86.5702 69.9207C85.3626 71.0248 79.8706 69.224 77.9283 68.1199" fill="black"/>
<path d="M69.4012 64.1951C68.7538 63.6473 67.7544 63.6697 67.2928 64.476C66.9832 65.0126 64.2949 64.2597 63.6334 64.212C62.209 64.108 60.7847 64.58 59.3716 64.4929L57.5391 64.0687C58.102 63.0217 58.6557 61.9747 59.1999 60.9278C59.563 60.7648 60.9254 61.3098 61.3589 61.3632C62.43 61.5007 63.5178 61.4253 64.5595 61.1413C65.8882 60.7676 67.777 59.9529 68.2189 58.4836C68.3878 57.902 68.1598 57.5368 68.1317 56.9693C68.0472 55.2556 67.0057 58.7617 68.4779 54.4408C68.3897 53.1972 68.8523 52.4405 69.8657 52.1708C71.0273 51.4404 72.2893 51.534 73.6517 52.4518C74.2281 53.2425 75.062 53.8086 76.0106 54.0531C77.6996 54.4914 78.3977 51.9039 76.7256 51.4685C75.7629 51.2184 75.3942 50.3026 76.2415 49.6676C76.6806 49.3389 76.9677 49.3474 77.4744 49.2434C77.6989 49.1828 77.9036 49.0645 78.068 48.9003C78.2325 48.7362 78.351 48.5319 78.4118 48.3079C78.7552 47.0633 78.4315 46.1755 80.1007 45.9311C81.3534 45.7485 82.6342 46.1221 83.8305 46.4368C84.0772 46.5053 84.3387 46.4995 84.5821 46.4199C85.663 46.743 86.8341 46.6363 87.7151 45.8721C89.0156 44.7315 87.1099 42.8408 85.8151 43.9758C85.6687 44.105 84.7848 43.515 84.6666 43.4139C84.3787 43.132 84.191 42.7641 84.1317 42.366C83.9206 41.5456 83.7602 40.5988 84.4611 39.9976C85.8685 38.798 88.4555 39.1885 88.965 41.0512C89.2465 42.1103 90.3921 42.2086 91.079 41.7142C93.4857 40.8152 96.219 40.1409 98.1923 42.3632C98.2664 42.4461 98.3494 42.5205 98.44 42.5851C98.4822 42.7544 98.562 42.912 98.6736 43.0463C98.7852 43.1805 98.9257 43.2879 99.0846 43.3605C100.172 43.9181 101.078 44.7713 101.7 45.8215C101.849 46.0632 102.24 46.6644 102.581 47.2796C102.477 47.4014 102.401 47.5448 102.36 47.6994C102.319 47.8539 102.312 48.0157 102.342 48.173C102.638 50.18 102.655 52.2184 102.392 54.2301C102.295 55.2291 102.062 56.2102 101.7 57.1463C101.522 57.5508 99.3605 60.5766 98.5583 59.5146C98.386 59.2792 98.1437 59.1042 97.8658 59.0145C97.8223 58.4464 97.7329 57.8827 97.5984 57.3289C97.2015 55.6432 94.6117 56.3625 95.0086 58.0425C95.459 59.9445 94.9045 61.4306 93.5505 62.7876C92.3992 63.9394 90.0937 65.6363 88.4836 64.3103C88.2269 64.0679 87.887 63.9328 87.5336 63.9328C87.1802 63.9328 86.8402 64.0679 86.5835 64.3103" fill="white"/>
</g>
<defs>
<clipPath id="clip0_875_1284">
<rect width="157" height="74.5085" fill="white"/>
</clipPath>
</defs>
</svg>
